<svg width="353" height="400" viewBox="0 0 353 400" fill="none" xmlns="http://www.w3.org/2000/svg">
<path d="M151.896 61C157.496 28.2 170.23 6.83333 176.396 0L176.396 399.5C167.196 399.1 156.563 394.333 151.896 392C124.696 394.8 109.563 370.5 105.396 358H99.3962C87.3959 368 70.063 351.833 62.8965 342.5C26.4965 338.9 28.3965 308.333 33.8965 293.5C27.3965 290.5 20.7298 280.833 20.8965 276C13.2965 268.4 15.3965 259.167 17.3965 255.5C-3.00352 244.7 1.89677 221 6.89692 210.5C-11.5031 182.1 11.2299 161.333 24.8964 154.5C22.4964 126.9 45.8963 112.333 57.8962 108.5C43.4962 69.3 65.5628 37.8333 78.3962 27C83.1962 56.2 94.3962 73.1667 99.3962 78C100.196 54.8 119.396 36.3333 128.896 30C126.896 54.4 133.73 63.1667 137.396 64.5L151.896 61Z" fill="#FFC0CB"/>
<path d="M154.395 65C161.195 39.4 171.895 17 176.395 9V393.5C162.795 393.1 155.23 388.333 153.396 386C128.196 391.2 113.896 367.167 109.896 354.5C107.496 352.9 104.563 348.833 103.396 347L100.396 349L101.896 354.5L98.3965 351C94.3965 353.8 89.3965 357.5 84.8965 354.5C80.1133 354.899 76.5879 349.703 73.4297 345.049L73.3965 345C70.9965 340.2 63.3965 336.167 61.3965 336C24.5965 332 34.3965 303.667 43.8965 290C27.0982 287.6 25.8972 278.333 27.3965 274C17.7965 268 22.0632 256.833 25.3965 252C7.39648 250.4 7.22981 232 9.39647 223C6.99676 217 10.3964 211.833 12.3961 210C-6.00387 178 17.0625 162 30.8957 158C26.4957 129.2 48.3948 116.333 59.8943 113.5C36.8959 148.5 78.3954 160 64.8943 132L69.3944 123C46.994 81 64.7278 47.8333 76.3948 36.5C75.9948 50.9 90.2281 74.8333 97.3948 85L104.395 80.5C100.395 65.7 116.395 47 124.895 39.5C122.095 53.1 130.061 64.8333 134.395 69C139.195 67.4 149.728 65.6667 154.395 65Z" fill="black"/>
<path d="M46.8962 197.5L44.3962 211C43.5629 209.333 41.9962 205.5 42.3962 203.5C43.2295 201.5 45.296 197.5 46.8962 197.5Z" fill="#FFC0CB"/>
<path d="M56.8965 191L53.8965 193C56.3965 194.5 67.3965 203.5 67.3965 201.5C67.3965 199.9 60.3965 193.833 56.8965 191Z" fill="#FFC0CB"/>
<path d="M78.8965 320C78.4965 324 82.3965 331.333 84.3965 334.5C81.9965 334.5 75.8965 329.312 75.8965 326.5C75.8965 323.5 67.5632 318 63.3965 315.5C66.3965 317 73.8965 319.333 78.8965 320Z" fill="#FFC0CB"/>
<path d="M39.8965 177.5C24.2965 180.7 19.3965 189.167 18.8965 193C24.4965 184.6 36.8963 181.167 42.3962 180.5L39.8965 177.5Z" fill="#FFC0CB"/>
<path d="M127.396 280C104.596 299.6 108.23 325.333 113.397 335.5C117.797 339.5 131.897 338.167 138.397 337C126.797 325.4 126.563 294 127.396 280Z" fill="#FFB6C1"/>
<path d="M133.396 293.5C135.796 291.9 145.063 296.833 149.396 299.5C145.796 301.1 143.563 320.833 142.896 330.5C130.096 323.3 131.23 302.833 133.396 293.5Z" fill="#FFB6C1"/>
<path d="M174.396 309L162.896 307.5V318.5C166.496 320.9 172.063 319.5 174.396 318.5V309Z" fill="#FFB6C1"/>
<path d="M161.396 321.5L162.896 328.5H174.396V321.5H161.396Z" fill="#FFB6C1"/>
<path d="M160.396 306.5L151.896 303.5C150.563 307.167 147.996 314.9 148.396 316.5C148.796 318.1 155.23 318.5 158.396 318.5C160.396 317.7 160.563 310.167 160.396 306.5Z" fill="#FFB6C1"/>
<path d="M147.396 322.5L148.896 331.5L160.396 328.5C160.396 326.1 159.063 322.833 158.396 321.5L147.396 322.5Z" fill="#FFB6C1"/>
<path d="M49.8965 291.5C64.6965 326.3 94.7298 316 107.396 306.5L98.8965 293.5C92.0965 299.5 84.0632 297.333 80.8965 295.5C74.8965 298.7 57.7298 294.167 49.8965 291.5Z" fill="#FFB6C1"/>
<path d="M77.3965 125C58.9965 95.8 67.0632 65.5 73.3965 54C75.7965 70.4 98.3965 99.5 109.396 112C110.996 112.4 112.396 119.833 112.896 123.5C113.396 123.5 114.096 123.8 112.896 125C111.696 126.2 96.0632 108.5 88.3965 99.5C86.3965 101.9 103.896 120.833 112.896 130C114.496 131.6 107.563 141.667 103.896 146.5C99.8965 144.5 93.5632 133.333 90.8965 128L96.8858 122.011C93.5991 123.499 83.1594 124.588 77.3965 125Z" fill="#FFB6C1"/>
<path d="M158.896 117.5C140.096 119.1 162.73 56.1667 176.396 24.5V121H172.896C178.096 123.8 175.063 140.5 172.896 148.5C167.296 148.9 162.23 141.667 160.396 138V121H168.896C166.896 121 164.73 118.667 163.896 117.5C159.896 116.3 160.896 99.3333 161.896 91C159.896 91.8 159.063 109 158.896 117.5Z" fill="#FFB6C1"/>
<path d="M111.897 293L107.897 300L98.3965 281.5C92.3965 274.5 89.3965 275 86.3965 277.5C81.5965 281.5 83.8967 285.667 86.8967 288.5C89.8969 290 92.0145 286.236 90.8965 284C90.3965 283 88.3965 286.5 86.8967 285V279.5C90.8968 276.3 94.5633 280.833 95.8965 283.5C97.0965 292.3 90.3966 293.5 86.8967 293C78.0968 293 77.5633 282.333 78.3965 277C76.3965 278.2 74.8966 281.833 74.3967 283.5C71.5968 279.5 63.2299 280.5 59.3965 281.5C56.9965 283.1 47.0632 284.5 42.3965 285C30.7965 283.4 29.8965 276 30.8965 272.5C17.6965 256.1 32.5327 250.111 36.8965 257C39.6965 263.4 35.7298 265 33.3965 265C34.1965 259 32.0632 259.167 30.8965 260C28.0976 267.2 33.7303 268.667 36.8965 268.5C43.6965 265.3 42.3966 259.5 40.8967 257C38.0968 251 28.0633 248.167 23.3965 247.5C9.80359 244.7 11.3996 229.667 13.8967 222.5C11.0967 216.5 16.3967 211.667 19.3967 210C15.3967 204.4 22.3969 194.667 26.397 190.5C17.197 201.3 32.2301 223.667 40.8967 233.5C45.6964 239.5 42.8965 242.833 40.8967 244.5C39.2967 247.3 40.23 251 40.8967 252.5C53.6967 269.3 68.5633 272.833 74.3967 272.5C77.5967 269.3 75.73 262.833 74.3967 260C77.1967 254.4 83.8967 257.667 86.8967 260C89.2967 260 104.563 282 111.897 293Z" fill="url(#paint0_linear_1204_2)"/>
<path d="M72.3965 286L73.8965 291.5C67.4965 291.5 57.2298 288.5 52.8965 287C55.6965 286.6 60.3965 284.833 62.3965 284C65.5965 283.6 70.3965 285.167 72.3965 286Z" fill="url(#paint1_linear_1204_2)"/>
<path d="M87.3961 340L94.8961 348.5C90.4958 352.5 85.3962 351.167 83.3965 350C78.9965 344.8 72.2298 338.167 69.3965 335.5C68.1965 331.9 54.563 330 47.8963 329.5C33.8963 317.1 40.3963 302 45.3963 296C46.1963 300.4 52.7295 308.167 55.8961 311.5C54.6961 315.1 58.7295 318.333 60.8961 319.5C63.6961 317.9 71.3961 326.833 74.8961 331.5C77.2961 337.9 84.2295 339.833 87.3961 340Z" fill="url(#paint2_linear_1204_2)"/>
<path d="M72.8961 270V267C56.8958 263.8 49.8962 254 48.3965 249.5C47.1965 247.5 51.5632 243 53.8965 241C55.4965 239 54.5632 236.167 53.8965 235C28.2965 207 42.5632 192.667 52.8965 189L45.8965 183.5C31.4965 185.1 26.563 193.167 25.8962 197C21.8962 205.4 36.8962 225.833 44.8962 235C46.4963 236.6 44.8962 242 43.8961 244.5C41.4961 246.1 42.2294 250.167 42.8961 252C51.2961 263.6 66.3961 268.833 72.8961 270Z" fill="url(#paint3_linear_1204_2)"/>
<path d="M30.8965 162C3.29648 174 7.72981 194.333 13.3965 203C11.7965 183 28.7298 176 37.3965 175C33.3965 171 31.3965 164.667 30.8965 162Z" fill="url(#paint4_linear_1204_2)"/>
<path d="M154.896 120L155.396 129.5L151.896 124.5L148.396 130C151.996 145.2 168.396 153.333 176.396 155.5V169C148.396 161.4 139.23 137.5 137.896 126.5L146.896 113L154.896 120Z" fill="#F8F8FF"/>
<path d="M108.896 163C131.296 141 123.896 109.5 117.396 96.5L108.896 105L113.396 110C119.396 128.4 110.23 146.333 104.896 153L96.3965 144.5C98.8965 160 107.23 163.167 108.896 163Z" fill="#F8F8FF"/>
<path d="M162.896 204C168.896 191.6 162.73 186.833 158.896 186C162.896 202.8 144.563 207.667 134.896 208C128.896 208 116.396 200.333 110.896 196.5C88.3965 179 80.8965 176 76.8965 175C73.6965 174.2 71.2298 177 70.3965 178.5C77.5965 177.7 94.3965 193.833 101.896 202C114.296 212.8 132.396 217.833 139.896 219C147.496 219.4 158.396 209.167 162.896 204Z" fill="#F8F8FF"/>
<path d="M144.896 223.5L142.396 230C155.996 234 163.396 245.333 165.396 250.5C161.896 227 156.896 223.5 149.896 220.5L144.896 223.5Z" fill="#F8F8FF"/>
<path d="M140.396 224H136.396C134.796 237.031 123.73 240.43 118.396 240.5C110.207 242 101.73 236 98.3965 232C99.1965 236.4 108.063 241.167 112.396 243C135.596 243 140.73 230.333 140.396 224Z" fill="#F8F8FF"/>
<path d="M53.3965 182.5C44.5965 177.3 38.7298 165 36.8965 159.5C38.4965 164.3 45.5632 170.833 48.8965 173.5C50.0965 175.1 56.3965 179.167 59.3965 181C63.7965 181.4 70.5632 188.5 73.3965 192L70.3965 182.5C74.3965 182.1 84.7298 191.667 89.3965 196.5C82.1965 206.9 85.0632 223.5 87.3965 230.5C84.1965 229.7 82.0632 222.833 81.3965 219.5C80.5965 221.1 82.7298 226.5 83.8965 229C85.0965 233.8 91.7298 239 94.8965 241C103.296 247.8 119.73 246.167 126.896 244.5C122.896 247.3 110.563 248.333 104.896 248.5C91.6965 248.9 81.3965 240.333 77.8965 236C70.6965 228.4 69.2298 214.833 69.3965 209C79.7965 209 81.7298 202.667 81.3965 199.5C80.5965 203.5 76.7298 204.5 74.8965 204.5C71.6965 194.9 59.2298 185.833 53.3965 182.5Z" fill="#F8F8FF"/>
<path d="M138.896 261.5C128.496 258.7 123.896 266 122.896 270C126.496 267.6 133.73 267.333 136.896 267.5L138.896 261.5Z" fill="#F8F8FF"/>
<path d="M72.8965 253.5C65.2965 248.3 65.0632 227 65.8965 217C68.2965 232.2 83.2298 242.667 90.3965 246C89.1965 246.4 91.2298 254.833 92.3965 259C85.5965 251.4 76.5632 252.167 72.8965 253.5Z" fill="#F8F8FF"/>
<path d="M157.396 281C148.196 271.8 142.23 276.167 140.396 279.5C139.196 276.3 139.563 274.167 139.896 273.5C143.096 264.7 154.896 268.5 160.396 271.5C162.796 275.1 172.063 280.333 176.396 282.5V296.5C173.196 296.9 170.73 294 169.896 292.5C166.696 285.7 163.23 283.667 161.896 283.5L156.396 274L157.396 281Z" fill="#F8F8FF"/>
<path d="M117.396 354.5C122.063 355 134.496 354.9 146.896 350.5C146.73 351.5 144.996 353.9 139.396 355.5C141.896 356.333 147.196 359.1 148.396 363.5C148.563 368 149.396 377.5 151.396 379.5C150.396 379.833 148.096 380.3 146.896 379.5C144.497 378.38 139.795 375.725 139.42 373.745C139.637 375.714 140.611 379.164 143.036 379.477C143.162 379.487 143.282 379.494 143.396 379.5C143.273 379.5 143.153 379.492 143.036 379.477C139.511 379.21 131.804 377.407 126.396 372C123.063 367.167 116.596 356.9 117.396 354.5Z" fill="#F8F8FF"/>
<path d="M143.396 339C118.196 346.2 108.23 339 106.396 334.5C105.196 356.9 132.896 352.167 146.896 347C144.896 345.8 143.73 341.167 143.396 339Z" fill="#F8F8FF"/>
<path d="M176.396 333.5V388C135.397 385 152.896 350 152.896 349C152.896 348.2 165.563 345.667 171.896 344.5C170.296 343.7 157.896 344.833 151.896 345.5C140.296 334.7 163.396 333 176.396 333.5Z" fill="#F8F8FF"/>
<path d="M104.896 322C98.4963 324 95.2296 333.833 94.3963 338.5C87.9963 335.7 85.7296 324 85.3963 318.5H90.8963L92.3963 324.5C92.3963 321.7 100.73 317.667 104.896 316V322Z" fill="#F8F8FF"/>
<path d="M106.396 276.5L107.396 278L109.396 276.5H106.396Z" fill="#F8F8FF"/>
<path d="M108.896 280.5L110.896 283.5L121.396 274.5C115.396 276.1 110.563 279.167 108.896 280.5Z" fill="#F8F8FF"/>
<path d="M116.396 281L111.396 284.5L114.396 289.5V288L113.396 286.5L116.396 281Z" fill="#F8F8FF"/>
<path d="M130.896 284.5L131.896 278H137.396C142.596 284 144.73 285.667 145.396 285.5C139.796 279.9 144.063 279.5 146.896 280C142.096 282 153.23 288.167 159.396 291L158.396 288C160.396 289.2 162.563 292.167 163.396 293.5L162.896 291C164.496 291 166.896 294.667 167.896 296.5L160.896 294.5C163.296 296.1 172.23 298.833 176.396 300V305C166.797 305 156.396 300 152.396 297.5C137.996 287.9 131.73 291.167 130.396 294V287.5C130.396 286.3 136.73 286.333 139.896 286.5C139.496 285.3 133.73 284.667 130.896 284.5Z" fill="#F8F8FF"/>
<path d="M138.896 272.5C139.73 267.5 143.896 258.1 153.896 260.5L154.396 266.5C154.896 263.5 156.396 257.5 158.396 257.5C156.563 252.833 150.696 243.1 141.896 241.5L137.896 237.5L140.396 234C148.23 235.167 164.296 242.1 165.896 260.5C167.23 250.167 167.996 228.3 160.396 223.5C159.396 223.5 161.397 211.5 176.396 212C173.23 211.5 166.497 211 164.897 213V206.5C168.563 201.833 173.897 190.4 165.897 182C161.397 179.833 151.297 174.6 146.897 171C149.397 173.667 154.797 179.2 156.397 180L153.897 180.5C150.397 177.667 143.096 171 141.896 167L141.396 163C139.063 159.833 134.596 152.4 135.396 148C136.563 151.333 139.396 158 141.396 158V154C139.563 151 135.997 143.8 136.397 139C139.73 148 152.396 167.5 176.396 173.5V212V278C174.23 278 167.996 276.7 160.396 271.5C156.396 268.167 146.496 263.7 138.896 272.5Z" fill="#F8F8FF"/>
<path d="M135.396 240C126.196 251.2 104.23 249.333 94.3963 247C90.7963 259 99.2296 266.667 103.896 269H119.896C123.496 262.2 136.063 259.5 141.896 259C145.896 255.4 151.563 255.5 153.896 256C153.496 245.2 145.396 242.5 141.396 242.5L135.396 240Z" fill="#F8F8FF"/>
<path d="M71.3963 255.5C69.7963 257.5 69.7296 260.333 69.8963 261.5C65.096 259.5 58.2298 250 55.3967 245.5C58.5967 243.9 58.3967 237.167 57.8967 234C55.8967 230.4 51.3966 225.5 49.3965 223.5C48.9965 217.5 51.5632 205 52.8965 199.5L64.8965 207.5C57.2965 210.7 61.0632 232.833 63.8965 243.5L58.8965 241.5L65.3965 247L71.3963 255.5Z" fill="#F8F8FF"/>
<path d="M64.3967 178.5C21.9967 166.9 36.0633 138.333 48.3967 125.5C43.9968 152.3 58.8966 154.667 66.8965 152.5C67.2965 156.1 60.0632 156.667 55.8965 156.5C71.78 162.5 74.848 147.333 74.3965 139C79.9965 139 93.0632 155.333 98.8965 163.5C101.296 167.1 109.896 168 113.896 168V171H106.396L100.396 169C103.996 174.6 114.23 174.333 118.896 173.5C113.696 160.7 122.396 148.167 127.396 143.5C123.396 150.3 128.396 164 131.396 170C126.596 158.8 128.063 149 129.396 145.5C133.396 169.1 146.396 181.667 152.396 185C155.996 185.8 156.563 190.333 156.397 192.5C152.397 192.9 142.063 184.333 137.396 180L153.897 197C143.497 215.8 120.23 204.167 109.896 196L85.8965 177C73.8965 167 66.5633 173.833 64.3967 178.5Z" fill="#F8F8FF"/>
<path d="M99.3965 92L110.896 85C109.73 76.8333 110.096 58 120.896 48C120.896 55.8333 123.396 72.4 133.396 76C138.73 74.8333 150.296 72.6 153.896 73C150.73 83.3333 144.696 104.6 145.896 107C144.73 108.667 140.996 111.9 135.396 111.5L134.896 120L131.896 110.5C131.563 118.167 130.196 133.8 127.396 135C128.563 126.833 129.396 112.5 126.896 110.5C125.896 105.333 124.796 94.4 128.396 92H123.396L129.396 89C127.23 89 121.996 88.8 120.396 90C120.896 89 124.296 87.2 131.896 86C133.227 84.4036 135.81 81.5968 137.409 80.7323C129.968 82.5005 116.544 86.088 115.396 88C116.73 90.3333 116.896 96.4 106.896 102L99.3965 92Z" fill="#F8F8FF"/>
<path d="M94.8963 202C96.0963 203.6 107.063 211.667 112.396 215.5L104.896 212.5C102.496 212.716 101.23 222.923 100.896 228C97.6964 220.4 99.563 213.167 100.896 210.5L98.3964 209.5C91.5964 232.7 105.896 240 112.396 243C83.9965 235.4 88.8963 212.5 94.8963 202Z" fill="white"/>
<path d="M128.896 221.5C134.396 246 96.3964 231 118.22 217C117.279 218.5 115.496 221.7 115.896 222.5C118.396 220 124.096 217.1 126.896 225.5L128.896 221.5Z" fill="#FF1493"/>
<path d="M176.396 336V333.5C169.596 331.5 150.396 335.5 150.396 337.5C152.396 337.1 168.396 336.167 176.396 336Z" fill="#FF1493"/>
<path d="M106.396 334.5C105.196 340.9 109.397 347 112.396 348.5L113.396 349C111.796 347.8 111.23 343.667 110.897 342C113.697 344.4 122.896 342.833 127.396 342C112.596 342.4 107.23 337.167 106.396 334.5Z" fill="#FF1493"/>
<path d="M176.397 302L176.396 305C164.396 304.5 159.23 301.5 157.897 300.5C150.396 296.5 141.063 292.167 135.896 291C140.296 289.4 152.73 294.667 158.397 297.5C160.797 300.3 171.397 301.667 176.397 302Z" fill="#FF1493"/>
<path d="M141.896 265C139.396 268 138.73 271.667 138.896 272.5C145.296 264.5 157.063 269.333 162.396 273C166.396 276.6 173.73 278.167 176.397 278.5V259L174.397 272.5C172.797 272.5 172.063 272.167 171.897 272L170.897 266.5L170.397 272C169.197 272 168.23 271.333 167.897 271L167.397 268.5L166.397 271C159.197 269.4 155.563 266 154.896 264L154.396 266.5C149.996 264.9 144.73 265.5 142.397 266L141.896 265Z" fill="#FF1493"/>
<path d="M94.3967 247.5C89.5967 257.1 98.3967 265.833 103.397 269C96.5965 262.2 95.8968 254.167 96.3969 251C119.997 255 132.23 245.333 135.397 240C126.997 250.4 104.563 249.333 94.3967 247.5Z" fill="#FF1493"/>
<path d="M90.3969 246V249C79.1969 246.2 76.7303 239.5 76.8969 236.5C78.0969 239.7 86.3969 244.167 90.3969 246Z" fill="#FF1493"/>
<path d="M54.397 204.5C51.597 205.7 51.5637 219.333 51.897 226L49.3968 223C48.1968 216.2 51.2301 204.5 52.8968 199.5L64.3968 207L62.8968 210L54.397 204.5Z" fill="#FF1493"/>
<path d="M48.3964 126C46.3952 139 47.3952 156.5 67.8964 152C61.8965 165 35.9967 145.2 48.3964 126Z" fill="#FF1493"/>
<path d="M93.8965 157C87.8965 146.2 77.8965 139 74.3965 139C81.9965 143.4 88.8952 154 90.8952 158.5C95.2952 167.3 102.896 170.5 106.396 171H113.895V168L106.396 167C98.7965 165 96.3978 159 93.8965 157Z" fill="#FF1493"/>
<path d="M127.395 143.5C118.195 149.9 115.896 164 117.895 170.5C119.895 156.1 123.395 152.833 124.895 153C124.395 154.5 127.396 161 127.896 161C126.396 158 126.395 148.333 127.395 143.5Z" fill="#FF1493"/>
<path d="M154.395 196.5C147.995 208.9 135.23 208 129.396 206H137.645C142.245 205.384 147.395 199.077 149.395 196C144.195 192 138.895 183 136.895 179C138.396 181.5 148.729 191.667 154.395 196.5Z" fill="#FF1493"/>
<path d="M162.396 204.5C165.196 196.5 161.396 192 159.396 191L158.896 186C168.896 189 165.396 201 162.396 204.5Z" fill="#FF1493"/>
<path d="M153.395 189L153.896 192L154.896 192.5H156.395V189C155.396 185.5 150.395 183.167 147.895 181.5C144.145 179 138.563 170.833 136.396 166.5C135.996 171.7 147.562 183.5 153.395 189Z" fill="#FF1493"/>
<path d="M151.396 160C155.396 166.8 169.395 173.5 176.395 176V173.5C166.396 171 155.73 163.833 151.396 160Z" fill="#FF1493"/>
<path d="M176.396 40.5V24.5C166.396 40.5 157.396 108 162.396 116.5C161.596 117.3 164.396 119.833 166.396 120.5H159.396C160.996 120.5 160.23 132.833 159.896 138.5C159.896 142.1 167.396 148 172.896 150C175.896 141 178.397 124.5 173.896 121.5H176.396V120C169.596 120 167.562 118.333 167.396 117.5C166.996 115.9 173.229 115.5 176.396 115.5L176.396 108.5C160.796 113.7 169.896 65.5 176.396 40.5Z" fill="#030000" fill-opacity="0.55"/>
<path d="M155.396 130C155.796 121.2 155.396 117.5 151.396 116.5L142.896 127.5C149.397 160 165.396 162.5 176.396 169V163C157.596 157.4 150.563 138.667 148.896 130L151.896 125.5L155.396 130Z" fill="#030000" fill-opacity="0.55"/>
<path d="M108.897 163C122.896 150.5 124.896 133.5 124.396 123.5C120.397 122.3 117.897 124 117.396 125C120.196 133.4 109.896 150.167 104.396 157.5L99.3969 153C98.5969 156.6 103.896 162.5 108.897 163Z" fill="#030000" fill-opacity="0.55"/>
<path d="M113.896 130C113.896 135.2 106.063 143.833 103.396 147C94.5965 139.576 90.7298 130.74 89.8965 127.5C97.3965 121.5 94.8965 123 97.3965 121.5C99.1116 120.471 87.3963 121.833 82.8965 121.5C80.4965 119.9 76.5631 108.167 74.8965 102.5C76.6845 105.361 81.2697 110.3 84.008 113.101C81.2884 109.662 75.3439 98.0422 72.3965 92V83.5C73.1497 88.0191 79.2802 96.4382 82.7768 100.746C78.9576 95.6692 74.9774 82.6656 73.3965 76.5L74.8965 71.5C76.8965 87.1 97.8965 114 113.896 130Z" fill="#030000" fill-opacity="0.55"/>
<path d="M39.3965 137.5C36.8965 148.5 39.6965 170.2 70.8965 169L67.3965 172C64.3965 172.167 56.7965 171.8 50.3965 169C52.3965 170.667 57.796 174.5 65.396 174.5L62.896 178.5C57.6836 176.798 53.1003 175.177 49.2261 173.423C51.6534 175.757 53.84 177.611 55.3963 178.5C59.7963 179.3 67.7296 184.667 71.8963 189L69.8963 182C75.8963 182.5 86.2297 192.333 89.8963 196.5C82.2963 204.9 85.3963 223.667 87.8963 231C81.0963 229.4 80.2296 214.5 80.8963 208C85.3963 200 82.3963 200 81.3963 200C81.8963 203 76.7296 205.5 74.8963 205.5C70.8963 196.5 61.8963 191 58.8963 186.5C51.4858 183.059 44.0316 174.541 39.4012 167.142C33.3698 161.117 32.8771 152.562 39.3965 137.5Z" fill="#030000" fill-opacity="0.55"/>
<path d="M85.8963 172C90.563 170.833 104.196 172.1 121.396 186.5L119.396 190.5L122.896 187.5L126.896 190.5L123.896 194.5L119.396 190.5L126.896 198L123.896 200L128.396 199L132.396 201.5L128.396 202.5L129.896 203.5L133.896 202.5L137.896 206H129.396C125.397 205.5 114.896 200.5 109.396 195.812L92.8963 177.5C97.0913 178.947 105.229 181.95 108.351 183.764C104.228 180.945 96.2518 176.366 90.3963 176L85.8963 172Z" fill="#030000" fill-opacity="0.55"/>
<path d="M132.396 194.5L128.896 191.5L125.396 194.5L128.896 198L132.396 194.5Z" fill="#030000" fill-opacity="0.55"/>
<path d="M138.896 198L134.896 196L129.896 198L134.896 201.5L138.896 198Z" fill="#030000" fill-opacity="0.55"/>
<path d="M140.896 199L137.396 201.5L140.396 204L144.896 201.5L140.896 199Z" fill="#030000" fill-opacity="0.55"/>
<path d="M116.396 203.5C135.996 217.5 150.896 209.333 155.896 203.5L156.396 207.5C153.197 212.3 144.73 215.833 140.896 217C122.096 216.6 106.563 207.5 101.396 202.5C82.8963 188 75.3963 179.167 70.3963 178.5C75.3964 168.5 86.3965 178 91.3964 183.5C94.1964 185.9 108.896 197.833 116.396 203.5Z" fill="#030000" fill-opacity="0.55"/>
<path d="M140.896 163C137.696 159.8 134.396 151 134.896 147C136.396 149 139.563 155.333 141.396 157.5L140.896 153.5C142.896 156.5 157.063 170.333 164.396 175.5C161.196 175.1 151.063 169 146.396 166C150.796 174 168.229 180.667 176.396 183V204.5C172.396 203.7 171.063 205.5 170.896 206.5C171.296 208.9 174.729 208.833 176.396 208.5V212H172.896C169.396 211 165.896 212.5 164.896 213.5C164.096 212.7 164.563 208 164.896 206C172.896 193.5 169.396 185.667 166.396 183C159.596 181 151.896 175.333 147.896 172C149.396 173.5 153.063 177.333 156.396 180L153.896 180.5C151.896 179.7 143.396 171.5 141.896 167.5L140.896 163Z" fill="#030000" fill-opacity="0.55"/>
<path d="M57.8963 213.5L54.8963 212C53.6963 212.8 54.063 224 54.3963 229.5C57.1963 231.1 57.8963 235.5 57.8963 237.5L61.3707 240.478C58.9897 238.38 58.0624 221.638 57.8963 213.5Z" fill="#030000" fill-opacity="0.55"/>
<path d="M63.8963 245.5L58.3963 241L57.8963 242.5C56.8963 245 65.1185 254.5 69.8963 259C69.0963 257.8 70.563 256.833 71.3963 256.5C69.3963 255.7 65.563 248.833 63.8963 245.5Z" fill="#030000" fill-opacity="0.55"/>
<path d="M73.3963 254C65.3963 247 64.3963 228.167 65.8963 217.5L70.3963 227.5C67.8963 235 75.3963 247.5 81.3963 252.5C79.3963 251.7 75.2296 253.167 73.3963 254Z" fill="#030000" fill-opacity="0.55"/>
<path d="M144.896 223.5L140.896 231C149.696 231.4 161.896 244.833 165.396 250.5C163.396 233.7 150.563 224.667 144.896 223.5Z" fill="#030000" fill-opacity="0.55"/>
<path d="M176.396 216.5C165.596 217.3 161.229 221.5 160.396 223.5C164.396 227.1 165.896 238 166.396 243L167.896 239.5C168.696 237.9 168.23 233.833 167.896 232L169.396 236L171.396 235V232L169.896 232.5V231.5L170.896 230.5L171.396 227L171.896 230.5L176.396 229V216.5Z" fill="#030000" fill-opacity="0.55"/>
<path d="M172.896 231H176.396V233.5H172.896V231Z" fill="#030000" fill-opacity="0.55"/>
<path d="M142.896 234H140.396L137.396 237.5C137.396 238.7 140.563 241.167 141.896 242C149.896 242.4 156.063 252.333 157.896 257.5L159.896 257C160.296 251 151.063 242.5 146.396 239C149.996 239.4 155.563 245.167 157.896 248C155.496 240.8 146.896 235.667 142.896 234Z" fill="#030000" fill-opacity="0.55"/>
<path d="M136.896 267.5L139.396 261.5C127.396 258.5 122.73 266.667 122.896 270.5C126.896 269 133.396 268 136.896 267.5Z" fill="#030000" fill-opacity="0.55"/>
<path d="M120.396 269.5L125.396 263C124.196 263.8 115.23 264.333 110.896 264.5L111.896 267.5L108.896 264.5H105.396L106.396 268L102.896 263.5L98.3963 260.5C96.8963 261 100.896 266.5 103.396 269C108.196 270.2 117.063 270.167 120.396 269.5Z" fill="#030000" fill-opacity="0.55"/>
<path d="M154.896 269.5C149.696 267.1 144.73 268.5 142.896 269.5C142.096 271.9 143.23 272.833 143.896 273C148.296 271.4 154.396 273.667 156.896 275L154.896 269.5Z" fill="#030000" fill-opacity="0.55"/>
<path d="M162.896 278.5C162.096 278.1 160.563 273.667 159.896 271.5C161.496 272.3 171.563 279 176.396 282.5V288C173.996 288 171.73 286 170.896 285C169.296 281.8 164.896 279.333 162.896 278.5Z" fill="#030000" fill-opacity="0.55"/>
<path d="M106.396 276.5L107.396 278.5L109.396 276.5H106.396Z" fill="#030000" fill-opacity="0.55"/>
<path d="M116.396 281L111.396 284.5L114.396 289.5V288L113.396 286.5L116.396 281Z" fill="#030000" fill-opacity="0.55"/>
<path d="M131.896 278C131.496 278.4 131.063 282.5 130.896 284.5C130.896 285.5 133.396 286 133.896 286C134.296 286 140.73 287 143.396 288L141.396 285C142.996 286.6 155.396 294.5 168.396 297C167.396 294.5 164.23 291 162.896 290V292.5C161.696 289.3 158.73 288 157.896 287.5L158.896 290C147.396 284.5 145.896 282 147.396 279.5C140.996 279.1 141.896 282 144.896 285.5C143.396 284 139.896 280.833 138.396 279C137.996 277 133.73 277.667 131.896 278Z" fill="#030000" fill-opacity="0.55"/>
<path d="M82.8963 303C78.8963 305 67.2296 303.833 61.8963 303L65.8963 307C74.6963 308.2 81.8963 306.833 84.3963 306C84.3963 304.4 83.3963 303.333 82.8963 303Z" fill="#030000" fill-opacity="0.55"/>
<path d="M94.8963 303.5L86.8963 305.5V302C88.3963 302.5 99.8963 295.5 100.396 295.5C100.796 295.5 103.896 301.5 105.396 304.5C104.996 305.7 99.2296 308 96.3963 309C97.9963 309.4 103.73 307.167 106.396 306C102.396 314 91.3963 314.667 86.3963 314L86.8963 307C88.8963 307.4 93.063 304.833 94.8963 303.5Z" fill="#030000" fill-opacity="0.55"/>
<path d="M71.3963 310.5C73.3963 310.5 81.2296 308.833 84.8963 308C85.6963 308.4 85.2296 312.5 84.8963 314.5C77.2963 313.7 72.7296 311.5 71.3963 310.5Z" fill="#030000" fill-opacity="0.55"/>
<path d="M92.8963 330.5C91.2963 330.1 89.2296 322.333 88.3963 318.5L91.3963 318C91.3963 320.4 91.7296 323.167 92.3963 324C93.3963 320.5 101.23 317.567 104.896 316V322C102.896 321.2 96.063 327.333 92.8963 330.5Z" fill="#030000" fill-opacity="0.55"/>
<path d="M174.896 314V308.5C167.296 307.3 162.896 306.5 162.396 307V315C162.796 316.2 164.23 316.5 164.896 316.5V313.5H165.896V316.5H169.896L170.396 311L170.896 310.5L171.896 316.5C172.696 317.3 174.23 315.167 174.896 314Z" fill="#030000" fill-opacity="0.55"/>
<path d="M162.396 328.5L161.896 325C161.896 323.4 167.063 323.333 169.396 323.5V325.5L170.396 326V323.5C173.396 323 174.396 325 174.896 325.5C175.296 325.9 175.063 327.667 174.896 328.5H162.396Z" fill="#030000" fill-opacity="0.55"/>
<path d="M161.396 306L160.396 314C155.196 318 150.063 315.333 148.396 313.5L151.896 303L161.396 306Z" fill="#030000" fill-opacity="0.55"/>
<path d="M160.396 329C159.996 328.6 152.396 330.5 148.896 331.5L147.396 325C154.596 322.2 159.23 324.167 160.396 325.5V329Z" fill="#030000" fill-opacity="0.55"/>
<path d="M146.896 298C144.896 305.833 141.296 322.9 142.896 328.5C141.73 326.167 139.596 320.7 140.396 317.5C139.773 319.214 138.917 323.142 140.115 325.934C140.21 326.131 140.303 326.32 140.396 326.5C140.292 326.318 140.199 326.129 140.115 325.934C137.335 320.139 134.159 307.511 141.896 299C141.396 301.667 140.596 307.2 141.396 308C142.063 304.833 144.096 298.4 146.896 298Z" fill="#030000" fill-opacity="0.55"/>
<path d="M127.396 282.5C125.73 295.5 124.896 324.6 134.896 337H132.396C129.705 332.963 124.68 324.42 123.963 319.528C124.263 325.087 125.348 334.452 127.896 337C125.896 335.167 121.696 329.9 120.896 323.5C120.743 325.792 120.535 330.437 120.809 332.119C120.839 332.25 120.868 332.377 120.896 332.5C120.863 332.4 120.834 332.272 120.809 332.119C119.785 327.601 117.896 317.942 117.896 312.5H122.396L118.396 311C118.396 304.5 119.896 289.5 125.896 281.5C124.23 285.667 121.296 294.9 122.896 298.5C123.73 294 125.796 284.5 127.396 282.5Z" fill="#030000" fill-opacity="0.55"/>
<path d="M144.896 344C137.296 347.6 123.73 346.833 117.896 346C117.496 348 120.063 350.167 121.396 351C130.996 353.8 143.063 349.833 147.896 347.5C145.896 346.7 145.063 344.833 144.896 344Z" fill="#030000" fill-opacity="0.55"/>
<path d="M138.896 352.5L147.896 350L144.896 353.5L139.896 355.5C144.896 356 147.5 360.333 148.896 364C148.096 366.4 149.73 375.833 150.896 379.5C150.896 380.3 147.896 380.167 146.396 380L140.396 375.5C140.796 377.1 142.396 379 143.396 380C130.596 373.6 130.73 364.167 132.396 360.5C132.396 362.5 134.063 364 134.896 364.5C134.496 364.1 134.063 359 133.896 356.5L138.896 352.5Z" fill="#030000" fill-opacity="0.55"/>
<path d="M162.896 361.5L161.396 362V365.5H162.896V361.5Z" fill="#030000" fill-opacity="0.55"/>
<path d="M162.896 367H161.396V370.5H163.396L162.896 367Z" fill="#030000" fill-opacity="0.55"/>
<path d="M165.896 372V374H166.896V373L165.896 372Z" fill="#030000" fill-opacity="0.55"/>
<path d="M176.396 388C143.896 387.5 147.23 362 152.396 349.5C152.396 347.9 165.396 345.5 171.896 344.5C170.296 344.1 160.563 344.667 155.896 345C152.296 346.2 150.563 345.333 150.396 344.5C149.596 341.3 167.563 340 176.396 340V351.5C169.596 351.5 166.563 356.833 165.896 359.5L165.396 353.5C164.596 353.5 163.73 358.167 163.396 360.5H161.396L160.896 357.5L156.396 362L159.396 362.5V366.5L155.896 368L159.396 367.5L159.896 371.5L157.896 372L160.396 372.5L161.396 373V372H163.896L164.396 375C163.196 374.6 161.23 375.5 160.396 376H162.896H164.896L165.896 377V375.5H168.396C168.396 379.1 173.73 380 176.396 380V388Z" fill="#030000" fill-opacity="0.55"/>
<path d="M121.396 79C114.996 70.2 118.396 51 121.396 47C119.796 61 128.396 72.5 133.396 76C134.196 74.8 148.063 73.1667 154.396 72.5C153.396 73 149.396 91 148.896 90C148.496 89.2 145.396 89.6667 143.896 90C142.696 89.2 147.063 82.3333 149.396 79L145.396 82.5L141.396 83.5V81.5L139.396 83.5H135.896L136.896 81C133.396 81.5 122.063 85 115.896 88C116.396 95.5 114.396 97 106.896 102C104.396 99.5 100.73 94.8333 99.3963 92C98.5963 90.8 113.896 82.8333 121.396 79Z" fill="#030000" fill-opacity="0.55"/>
<path d="M132.896 88.5L133.896 86L138.396 84.5L137.396 88L132.896 88.5Z" fill="#030000" fill-opacity="0.55"/>
<path d="M143.396 86.5L139.396 87L140.396 84.5L144.896 84L143.396 86.5Z" fill="#030000" fill-opacity="0.55"/>
<path d="M143.396 88C142.063 88.1667 139.196 88.5 138.396 88.5L137.396 92L142.396 90.5L143.396 88Z" fill="#030000" fill-opacity="0.55"/>
<path d="M131.396 90.5V93.5L135.396 92.5L136.896 89.5L131.396 90.5Z" fill="#030000" fill-opacity="0.55"/>
<path d="M200.897 61C195.297 28.2 182.563 6.83333 176.396 0L176.397 399.5C185.597 399.1 196.23 394.333 200.897 392C228.097 394.8 243.23 370.5 247.396 358H253.397C265.397 368 282.73 351.833 289.896 342.5C326.296 338.9 324.396 308.333 318.896 293.5C325.396 290.5 332.063 280.833 331.896 276C339.496 268.4 337.396 259.167 335.396 255.5C355.796 244.7 350.896 221 345.896 210.5C364.296 182.1 341.563 161.333 327.897 154.5C330.297 126.9 306.897 112.333 294.897 108.5C309.297 69.3 287.23 37.8333 274.397 27C269.597 56.2 258.397 73.1667 253.397 78C252.597 54.8 233.397 36.3333 223.897 30C225.897 54.4 219.063 63.1667 215.397 64.5L200.897 61Z" fill="#FFC0CB"/>
<path d="M198.398 65C191.598 39.4 180.898 17 176.398 9V393.5C189.998 393.1 197.563 388.333 199.396 386C224.596 391.2 238.896 367.167 242.896 354.5C245.296 352.9 248.23 348.833 249.396 347L252.396 349L250.896 354.5L254.396 351C258.396 353.8 263.396 357.5 267.896 354.5C272.68 354.899 276.205 349.703 279.363 345.049L279.396 345C281.796 340.2 289.396 336.167 291.396 336C328.196 332 318.396 303.667 308.896 290C325.695 287.6 326.896 278.333 325.396 274C334.996 268 330.73 256.833 327.396 252C345.396 250.4 345.563 232 343.396 223C345.796 217 342.397 211.833 340.397 210C358.797 178 335.73 162 321.897 158C326.297 129.2 304.398 116.333 292.899 113.5C315.897 148.5 274.398 160 287.899 132L283.399 123C305.799 81 288.065 47.8333 276.398 36.5C276.798 50.9 262.565 74.8333 255.398 85L248.398 80.5C252.398 65.7 236.398 47 227.898 39.5C230.698 53.1 222.732 64.8333 218.398 69C213.598 67.4 203.065 65.6667 198.398 65Z" fill="black"/>
<path d="M305.897 197.5L308.397 211C309.23 209.333 310.797 205.5 310.397 203.5C309.563 201.5 307.497 197.5 305.897 197.5Z" fill="#FFC0CB"/>
<path d="M295.896 191L298.896 193C296.396 194.5 285.396 203.5 285.396 201.5C285.396 199.9 292.396 193.833 295.896 191Z" fill="#FFC0CB"/>
<path d="M273.896 320C274.296 324 270.396 331.333 268.396 334.5C270.796 334.5 276.896 329.312 276.896 326.5C276.896 323.5 285.23 318 289.396 315.5C286.396 317 278.896 319.333 273.896 320Z" fill="#FFC0CB"/>
<path d="M312.896 177.5C328.496 180.7 333.396 189.167 333.896 193C328.296 184.6 315.897 181.167 310.397 180.5L312.896 177.5Z" fill="#FFC0CB"/>
<path d="M225.396 280C248.196 299.6 244.563 325.333 239.396 335.5C234.995 339.5 220.896 338.167 214.396 337C225.996 325.4 226.23 294 225.396 280Z" fill="#FFB6C1"/>
<path d="M219.396 293.5C216.996 291.9 207.73 296.833 203.396 299.5C206.996 301.1 209.23 320.833 209.896 330.5C222.696 323.3 221.563 302.833 219.396 293.5Z" fill="#FFB6C1"/>
<path d="M178.396 309L189.896 307.5V318.5C186.296 320.9 180.73 319.5 178.396 318.5V309Z" fill="#FFB6C1"/>
<path d="M191.396 321.5L189.896 328.5H178.396V321.5H191.396Z" fill="#FFB6C1"/>
<path d="M192.396 306.5L200.896 303.5C202.23 307.167 204.796 314.9 204.396 316.5C203.996 318.1 197.563 318.5 194.396 318.5C192.396 317.7 192.23 310.167 192.396 306.5Z" fill="#FFB6C1"/>
<path d="M205.396 322.5L203.896 331.5L192.396 328.5C192.396 326.1 193.73 322.833 194.396 321.5L205.396 322.5Z" fill="#FFB6C1"/>
<path d="M302.896 291.5C288.096 326.3 258.063 316 245.396 306.5L253.896 293.5C260.696 299.5 268.73 297.333 271.896 295.5C277.896 298.7 295.063 294.167 302.896 291.5Z" fill="#FFB6C1"/>
<path d="M275.396 125C293.796 95.8 285.73 65.5 279.396 54C276.996 70.4 254.396 99.5 243.396 112C241.796 112.4 240.396 119.833 239.896 123.5C239.396 123.5 238.696 123.8 239.896 125C241.096 126.2 256.73 108.5 264.396 99.5C266.396 101.9 248.896 120.833 239.896 130C238.296 131.6 245.23 141.667 248.896 146.5C252.896 144.5 259.23 133.333 261.896 128L255.907 122.011C259.194 123.499 269.634 124.588 275.396 125Z" fill="#FFB6C1"/>
<path d="M193.896 117.5C212.696 119.1 190.063 56.1667 176.396 24.5V121H179.896C174.696 123.8 177.73 140.5 179.896 148.5C185.496 148.9 190.563 141.667 192.396 138V121H183.896C185.896 121 188.063 118.667 188.896 117.5C192.896 116.3 191.896 99.3333 190.896 91C192.896 91.8 193.73 109 193.896 117.5Z" fill="#FFB6C1"/>
<path d="M240.896 293L244.896 300L254.396 281.5C260.396 274.5 263.396 275 266.396 277.5C271.196 281.5 268.896 285.667 265.896 288.5C262.896 290 260.778 286.236 261.896 284C262.396 283 264.396 286.5 265.896 285V279.5C261.896 276.3 258.23 280.833 256.896 283.5C255.696 292.3 262.396 293.5 265.896 293C274.696 293 275.23 282.333 274.396 277C276.396 278.2 277.896 281.833 278.396 283.5C281.196 279.5 289.563 280.5 293.396 281.5C295.796 283.1 305.73 284.5 310.396 285C321.996 283.4 322.896 276 321.896 272.5C335.096 256.1 320.26 250.111 315.896 257C313.096 263.4 317.063 265 319.396 265C318.596 259 320.73 259.167 321.896 260C324.695 267.2 319.063 268.667 315.896 268.5C309.096 265.3 310.396 259.5 311.896 257C314.696 251 324.73 248.167 329.396 247.5C342.989 244.7 341.393 229.667 338.896 222.5C341.696 216.5 336.396 211.667 333.396 210C337.396 204.4 330.396 194.667 326.396 190.5C335.596 201.3 320.563 223.667 311.896 233.5C307.097 239.5 309.896 242.833 311.896 244.5C313.496 247.3 312.563 251 311.896 252.5C299.096 269.3 284.23 272.833 278.396 272.5C275.196 269.3 277.063 262.833 278.396 260C275.596 254.4 268.896 257.667 265.896 260C263.496 260 248.23 282 240.896 293Z" fill="url(#paint5_linear_1204_2)"/>
<path d="M280.396 286L278.896 291.5C285.296 291.5 295.563 288.5 299.896 287C297.096 286.6 292.396 284.833 290.396 284C287.196 283.6 282.396 285.167 280.396 286Z" fill="url(#paint6_linear_1204_2)"/>
<path d="M265.397 340L257.897 348.5C262.297 352.5 267.397 351.167 269.396 350C273.796 344.8 280.563 338.167 283.396 335.5C284.596 331.9 298.23 330 304.897 329.5C318.897 317.1 312.397 302 307.397 296C306.597 300.4 300.063 308.167 296.897 311.5C298.097 315.1 294.064 318.333 291.897 319.5C289.097 317.9 281.397 326.833 277.897 331.5C275.497 337.9 268.564 339.833 265.397 340Z" fill="url(#paint7_linear_1204_2)"/>
<path d="M279.897 270V267C295.897 263.8 302.897 254 304.396 249.5C305.596 247.5 301.23 243 298.896 241C297.296 239 298.23 236.167 298.896 235C324.496 207 310.23 192.667 299.896 189L306.896 183.5C321.296 185.1 326.23 193.167 326.897 197C330.897 205.4 315.897 225.833 307.897 235C306.297 236.6 307.897 242 308.897 244.5C311.297 246.1 310.564 250.167 309.897 252C301.497 263.6 286.397 268.833 279.897 270Z" fill="url(#paint8_linear_1204_2)"/>
<path d="M321.896 162C349.496 174 345.063 194.333 339.396 203C340.996 183 324.063 176 315.396 175C319.396 171 321.396 164.667 321.896 162Z" fill="url(#paint9_linear_1204_2)"/>
<path d="M197.896 120L197.396 129.5L200.896 124.5L204.396 130C200.796 145.2 184.396 153.333 176.396 155.5V169C204.396 161.4 213.563 137.5 214.896 126.5L205.896 113L197.896 120Z" fill="#F8F8FF"/>
<path d="M243.896 163C221.496 141 228.896 109.5 235.396 96.5L243.896 105L239.396 110C233.396 128.4 242.563 146.333 247.896 153L256.396 144.5C253.896 160 245.563 163.167 243.896 163Z" fill="#F8F8FF"/>
<path d="M189.896 204C183.896 191.6 190.063 186.833 193.896 186C189.896 202.8 208.23 207.667 217.896 208C223.896 208 236.396 200.333 241.896 196.5C264.396 179 271.896 176 275.896 175C279.096 174.2 281.563 177 282.396 178.5C275.196 177.7 258.396 193.833 250.896 202C238.496 212.8 220.396 217.833 212.896 219C205.296 219.4 194.396 209.167 189.896 204Z" fill="#F8F8FF"/>
<path d="M207.896 223.5L210.396 230C196.796 234 189.396 245.333 187.396 250.5C190.896 227 195.896 223.5 202.896 220.5L207.896 223.5Z" fill="#F8F8FF"/>
<path d="M212.396 224H216.396C217.996 237.031 229.063 240.43 234.396 240.5C242.586 242 251.063 236 254.396 232C253.596 236.4 244.73 241.167 240.396 243C217.196 243 212.063 230.333 212.396 224Z" fill="#F8F8FF"/>
<path d="M299.396 182.5C308.196 177.3 314.063 165 315.896 159.5C314.296 164.3 307.23 170.833 303.896 173.5C302.696 175.1 296.396 179.167 293.396 181C288.996 181.4 282.23 188.5 279.396 192L282.396 182.5C278.396 182.1 268.063 191.667 263.396 196.5C270.596 206.9 267.73 223.5 265.396 230.5C268.596 229.7 270.73 222.833 271.396 219.5C272.196 221.1 270.063 226.5 268.896 229C267.696 233.8 261.063 239 257.896 241C249.496 247.8 233.063 246.167 225.896 244.5C229.896 247.3 242.23 248.333 247.896 248.5C261.096 248.9 271.396 240.333 274.896 236C282.096 228.4 283.563 214.833 283.396 209C272.996 209 271.063 202.667 271.396 199.5C272.196 203.5 276.063 204.5 277.896 204.5C281.096 194.9 293.563 185.833 299.396 182.5Z" fill="#F8F8FF"/>
<path d="M213.896 261.5C224.296 258.7 228.896 266 229.896 270C226.296 267.6 219.063 267.333 215.896 267.5L213.896 261.5Z" fill="#F8F8FF"/>
<path d="M279.896 253.5C287.496 248.3 287.73 227 286.896 217C284.496 232.2 269.563 242.667 262.396 246C263.596 246.4 261.563 254.833 260.396 259C267.196 251.4 276.23 252.167 279.896 253.5Z" fill="#F8F8FF"/>
<path d="M195.396 281C204.596 271.8 210.563 276.167 212.396 279.5C213.596 276.3 213.23 274.167 212.896 273.5C209.696 264.7 197.896 268.5 192.396 271.5C189.996 275.1 180.73 280.333 176.396 282.5V296.5C179.596 296.9 182.063 294 182.896 292.5C186.096 285.7 189.563 283.667 190.896 283.5L196.396 274L195.396 281Z" fill="#F8F8FF"/>
<path d="M235.396 354.5C230.73 355 218.296 354.9 205.896 350.5C206.063 351.5 207.796 353.9 213.396 355.5C210.896 356.333 205.596 359.1 204.396 363.5C204.23 368 203.396 377.5 201.396 379.5C202.396 379.833 204.696 380.3 205.896 379.5C208.296 378.38 212.998 375.725 213.373 373.745C213.156 375.714 212.182 379.164 209.757 379.477C209.631 379.487 209.511 379.494 209.396 379.5C209.52 379.5 209.64 379.492 209.757 379.477C213.282 379.21 220.989 377.407 226.396 372C229.73 367.167 236.196 356.9 235.396 354.5Z" fill="#F8F8FF"/>
<path d="M209.396 339C234.596 346.2 244.563 339 246.396 334.5C247.596 356.9 219.896 352.167 205.896 347C207.896 345.8 209.063 341.167 209.396 339Z" fill="#F8F8FF"/>
<path d="M176.396 333.5V388C217.396 385 199.897 350 199.897 349C199.897 348.2 187.23 345.667 180.897 344.5C182.497 343.7 194.897 344.833 200.896 345.5C212.496 334.7 189.396 333 176.396 333.5Z" fill="#F8F8FF"/>
<path d="M247.897 322C254.297 324 257.563 333.833 258.397 338.5C264.797 335.7 267.063 324 267.397 318.5H261.897L260.397 324.5C260.397 321.7 252.063 317.667 247.897 316V322Z" fill="#F8F8FF"/>
<path d="M246.397 276.5L245.397 278L243.397 276.5H246.397Z" fill="#F8F8FF"/>
<path d="M243.897 280.5L241.897 283.5L231.397 274.5C237.397 276.1 242.23 279.167 243.897 280.5Z" fill="#F8F8FF"/>
<path d="M236.397 281L241.397 284.5L238.397 289.5V288L239.397 286.5L236.397 281Z" fill="#F8F8FF"/>
<path d="M221.897 284.5L220.897 278H215.397C210.197 284 208.063 285.667 207.397 285.5C212.997 279.9 208.73 279.5 205.897 280C210.697 282 199.563 288.167 193.397 291L194.397 288C192.397 289.2 190.23 292.167 189.397 293.5L189.897 291C188.297 291 185.897 294.667 184.897 296.5L191.897 294.5C189.497 296.1 180.563 298.833 176.396 300V305C185.996 305 196.397 300 200.397 297.5C214.797 287.9 221.063 291.167 222.397 294V287.5C222.397 286.3 216.063 286.333 212.897 286.5C213.297 285.3 219.063 284.667 221.897 284.5Z" fill="#F8F8FF"/>
<path d="M213.897 272.5C213.063 267.5 208.897 258.1 198.897 260.5L198.397 266.5C197.897 263.5 196.397 257.5 194.397 257.5C196.23 252.833 202.097 243.1 210.897 241.5L214.897 237.5L212.397 234C204.563 235.167 188.497 242.1 186.897 260.5C185.563 250.167 184.797 228.3 192.397 223.5C193.397 223.5 191.396 211.5 176.396 212C179.563 211.5 186.296 211 187.896 213V206.5C184.23 201.833 178.896 190.4 186.896 182C191.396 179.833 201.496 174.6 205.896 171C203.396 173.667 197.996 179.2 196.396 180L198.896 180.5C202.396 177.667 209.697 171 210.897 167L211.397 163C213.73 159.833 218.197 152.4 217.397 148C216.23 151.333 213.397 158 211.397 158V154C213.23 151 216.796 143.8 216.396 139C213.063 148 200.397 167.5 176.396 173.5V212V278C178.563 278 184.797 276.7 192.397 271.5C196.397 268.167 206.297 263.7 213.897 272.5Z" fill="#F8F8FF"/>
<path d="M217.397 240C226.597 251.2 248.563 249.333 258.397 247C261.997 259 253.563 266.667 248.897 269H232.897C229.297 262.2 216.73 259.5 210.897 259C206.897 255.4 201.23 255.5 198.897 256C199.297 245.2 207.397 242.5 211.397 242.5L217.397 240Z" fill="#F8F8FF"/>
<path d="M281.397 255.5C282.997 257.5 283.063 260.333 282.897 261.5C287.697 259.5 294.563 250 297.396 245.5C294.196 243.9 294.396 237.167 294.896 234C296.896 230.4 301.396 225.5 303.396 223.5C303.796 217.5 301.23 205 299.896 199.5L287.896 207.5C295.496 210.7 291.73 232.833 288.896 243.5L293.896 241.5L287.396 247L281.397 255.5Z" fill="#F8F8FF"/>
<path d="M288.396 178.5C330.796 166.9 316.73 138.333 304.396 125.5C308.796 152.3 293.896 154.667 285.896 152.5C285.496 156.1 292.73 156.667 296.896 156.5C281.013 162.5 277.945 147.333 278.396 139C272.796 139 259.73 155.333 253.896 163.5C251.496 167.1 242.896 168 238.896 168V171H246.396L252.396 169C248.796 174.6 238.563 174.333 233.896 173.5C239.096 160.7 230.396 148.167 225.396 143.5C229.396 150.3 224.396 164 221.396 170C226.196 158.8 224.73 149 223.396 145.5C219.396 169.1 206.396 181.667 200.396 185C196.796 185.8 196.23 190.333 196.396 192.5C200.396 192.9 210.73 184.333 215.396 180L198.896 197C209.296 215.8 232.563 204.167 242.896 196L266.896 177C278.896 167 286.23 173.833 288.396 178.5Z" fill="#F8F8FF"/>
<path d="M253.396 92L241.896 85C243.063 76.8333 242.696 58 231.896 48C231.896 55.8333 229.396 72.4 219.396 76C214.063 74.8333 202.496 72.6 198.896 73C202.063 83.3333 208.096 104.6 206.896 107C208.063 108.667 211.796 111.9 217.396 111.5L217.896 120L220.896 110.5C221.23 118.167 222.596 133.8 225.396 135C224.23 126.833 223.396 112.5 225.896 110.5C226.896 105.333 227.996 94.4 224.396 92H229.396L223.396 89C225.563 89 230.796 88.8 232.396 90C231.896 89 228.496 87.2 220.896 86C219.566 84.4036 216.983 81.5968 215.384 80.7323C222.825 82.5005 236.249 86.088 237.396 88C236.063 90.3333 235.896 96.4 245.896 102L253.396 92Z" fill="#F8F8FF"/>
<path d="M257.897 202C256.697 203.6 245.73 211.667 240.397 215.5L247.897 212.5C250.297 212.716 251.563 222.923 251.897 228C255.097 220.4 253.23 213.167 251.897 210.5L254.397 209.5C261.197 232.7 246.896 240 240.396 243C268.796 235.4 263.897 212.5 257.897 202Z" fill="white"/>
<path d="M223.897 221.5C218.397 246 256.397 231 234.573 217C235.514 218.5 237.297 221.7 236.897 222.5C234.397 220 228.697 217.1 225.897 225.5L223.897 221.5Z" fill="#FF1493"/>
<path d="M176.397 336V333.5C183.197 331.5 202.397 335.5 202.397 337.5C200.397 337.1 184.397 336.167 176.397 336Z" fill="#FF1493"/>
<path d="M246.396 334.5C247.596 340.9 243.396 347 240.396 348.5L239.396 349C240.996 347.8 241.563 343.667 241.896 342C239.096 344.4 229.896 342.833 225.396 342C240.196 342.4 245.563 337.167 246.396 334.5Z" fill="#FF1493"/>
<path d="M176.396 302L176.396 305C188.396 304.5 193.563 301.5 194.896 300.5C202.396 296.5 211.73 292.167 216.896 291C212.496 289.4 200.063 294.667 194.396 297.5C191.996 300.3 181.396 301.667 176.396 302Z" fill="#FF1493"/>
<path d="M210.896 265C213.396 268 214.063 271.667 213.896 272.5C207.496 264.5 195.73 269.333 190.396 273C186.396 276.6 179.063 278.167 176.396 278.5V259L178.396 272.5C179.996 272.5 180.73 272.167 180.896 272L181.896 266.5L182.396 272C183.596 272 184.563 271.333 184.896 271L185.396 268.5L186.396 271C193.596 269.4 197.23 266 197.896 264L198.396 266.5C202.796 264.9 208.063 265.5 210.396 266L210.896 265Z" fill="#FF1493"/>
<path d="M258.396 247.5C263.196 257.1 254.396 265.833 249.396 269C256.197 262.2 256.896 254.167 256.396 251C232.796 255 220.563 245.333 217.396 240C225.796 250.4 248.23 249.333 258.396 247.5Z" fill="#FF1493"/>
<path d="M262.396 246V249C273.596 246.2 276.063 239.5 275.896 236.5C274.696 239.7 266.396 244.167 262.396 246Z" fill="#FF1493"/>
<path d="M298.396 204.5C301.196 205.7 301.229 219.333 300.896 226L303.396 223C304.596 216.2 301.563 204.5 299.896 199.5L288.396 207L289.896 210L298.396 204.5Z" fill="#FF1493"/>
<path d="M304.397 126C306.398 139 305.398 156.5 284.897 152C290.896 165 316.796 145.2 304.397 126Z" fill="#FF1493"/>
<path d="M258.896 157C264.896 146.2 274.896 139 278.396 139C270.796 143.4 263.898 154 261.898 158.5C257.498 167.3 249.896 170.5 246.396 171H238.898V168L246.396 167C253.996 165 256.395 159 258.896 157Z" fill="#FF1493"/>
<path d="M225.398 143.5C234.598 149.9 236.896 164 234.898 170.5C232.898 156.1 229.398 152.833 227.898 153C228.398 154.5 225.396 161 224.896 161C226.396 158 226.398 148.333 225.398 143.5Z" fill="#FF1493"/>
<path d="M198.398 196.5C204.798 208.9 217.563 208 223.396 206H215.148C210.548 205.384 205.398 199.077 203.398 196C208.598 192 213.898 183 215.898 179C214.396 181.5 204.064 191.667 198.398 196.5Z" fill="#FF1493"/>
<path d="M190.396 204.5C187.596 196.5 191.396 192 193.396 191L193.896 186C183.896 189 187.396 201 190.396 204.5Z" fill="#FF1493"/>
<path d="M199.398 189L198.896 192L197.896 192.5H196.398V189C197.396 185.5 202.398 183.167 204.898 181.5C208.648 179 214.23 170.833 216.396 166.5C216.796 171.7 205.231 183.5 199.398 189Z" fill="#FF1493"/>
<path d="M201.396 160C197.396 166.8 183.398 173.5 176.398 176V173.5C186.396 171 197.063 163.833 201.396 160Z" fill="#FF1493"/>
<path d="M176.397 40.5V24.5C186.397 40.5 195.397 108 190.397 116.5C191.197 117.3 188.397 119.833 186.397 120.5H193.397C191.797 120.5 192.563 132.833 192.897 138.5C192.897 142.1 185.397 148 179.897 150C176.897 141 174.396 124.5 178.897 121.5H176.397V120C183.197 120 185.23 118.333 185.397 117.5C185.797 115.9 179.564 115.5 176.397 115.5L176.397 108.5C191.997 113.7 182.897 65.5 176.397 40.5Z" fill="#030000" fill-opacity="0.55"/>
<path d="M197.397 130C196.997 121.2 197.397 117.5 201.397 116.5L209.897 127.5C203.396 160 187.397 162.5 176.397 169V163C195.197 157.4 202.23 138.667 203.897 130L200.897 125.5L197.397 130Z" fill="#030000" fill-opacity="0.55"/>
<path d="M243.896 163C229.896 150.5 227.897 133.5 228.396 123.5C232.396 122.3 234.896 124 235.396 125C232.596 133.4 242.896 150.167 248.396 157.5L253.396 153C254.196 156.6 248.896 162.5 243.896 163Z" fill="#030000" fill-opacity="0.55"/>
<path d="M238.896 130C238.896 135.2 246.73 143.833 249.396 147C258.196 139.576 262.063 130.74 262.896 127.5C255.396 121.5 257.896 123 255.396 121.5C253.681 120.471 265.397 121.833 269.896 121.5C272.296 119.9 276.23 108.167 277.896 102.5C276.108 105.361 271.523 110.3 268.785 113.101C271.505 109.662 277.449 98.0422 280.396 92V83.5C279.643 88.0191 273.513 96.4382 270.016 100.746C273.835 95.6692 277.816 82.6656 279.396 76.5L277.896 71.5C275.896 87.1 254.896 114 238.896 130Z" fill="#030000" fill-opacity="0.55"/>
<path d="M313.396 137.5C315.896 148.5 313.096 170.2 281.896 169L285.396 172C288.396 172.167 295.996 171.8 302.396 169C300.396 170.667 294.997 174.5 287.397 174.5L289.897 178.5C295.109 176.798 299.693 175.177 303.567 173.423C301.14 175.757 298.953 177.611 297.397 178.5C292.997 179.3 285.063 184.667 280.897 189L282.897 182C276.897 182.5 266.563 192.333 262.897 196.5C270.497 204.9 267.397 223.667 264.897 231C271.697 229.4 272.563 214.5 271.897 208C267.397 200 270.397 200 271.397 200C270.897 203 276.063 205.5 277.897 205.5C281.897 196.5 290.897 191 293.897 186.5C301.307 183.059 308.761 174.541 313.392 167.142C319.423 161.117 319.916 152.562 313.396 137.5Z" fill="#030000" fill-opacity="0.55"/>
<path d="M266.897 172C262.23 170.833 248.597 172.1 231.397 186.5L233.397 190.5L229.897 187.5L225.897 190.5L228.897 194.5L233.397 190.5L225.897 198L228.897 200L224.397 199L220.397 201.5L224.397 202.5L222.897 203.5L218.897 202.5L214.897 206H223.397C227.396 205.5 237.897 200.5 243.397 195.812L259.897 177.5C255.702 178.947 247.564 181.95 244.442 183.764C248.565 180.945 256.541 176.366 262.397 176L266.897 172Z" fill="#030000" fill-opacity="0.55"/>
<path d="M220.397 194.5L223.897 191.5L227.397 194.5L223.897 198L220.397 194.5Z" fill="#030000" fill-opacity="0.55"/>
<path d="M213.897 198L217.897 196L222.897 198L217.897 201.5L213.897 198Z" fill="#030000" fill-opacity="0.55"/>
<path d="M211.897 199L215.397 201.5L212.397 204L207.897 201.5L211.897 199Z" fill="#030000" fill-opacity="0.55"/>
<path d="M236.397 203.5C216.797 217.5 201.897 209.333 196.897 203.5L196.397 207.5C199.596 212.3 208.063 215.833 211.897 217C230.697 216.6 246.23 207.5 251.397 202.5C269.897 188 277.397 179.167 282.397 178.5C277.397 168.5 266.396 178 261.397 183.5C258.597 185.9 243.897 197.833 236.397 203.5Z" fill="#030000" fill-opacity="0.55"/>
<path d="M211.897 163C215.097 159.8 218.397 151 217.897 147C216.397 149 213.23 155.333 211.397 157.5L211.897 153.5C209.897 156.5 195.73 170.333 188.397 175.5C191.597 175.1 201.73 169 206.397 166C201.997 174 184.564 180.667 176.397 183V204.5C180.397 203.7 181.73 205.5 181.897 206.5C181.497 208.9 178.064 208.833 176.397 208.5V212H179.897C183.397 211 186.897 212.5 187.897 213.5C188.697 212.7 188.23 208 187.897 206C179.897 193.5 183.397 185.667 186.397 183C193.197 181 200.897 175.333 204.897 172C203.397 173.5 199.73 177.333 196.397 180L198.897 180.5C200.897 179.7 209.397 171.5 210.897 167.5L211.897 163Z" fill="#030000" fill-opacity="0.55"/>
<path d="M294.897 213.5L297.897 212C299.097 212.8 298.73 224 298.397 229.5C295.597 231.1 294.897 235.5 294.897 237.5L291.422 240.478C293.803 238.38 294.731 221.638 294.897 213.5Z" fill="#030000" fill-opacity="0.55"/>
<path d="M288.897 245.5L294.397 241L294.897 242.5C295.897 245 287.674 254.5 282.897 259C283.697 257.8 282.23 256.833 281.397 256.5C283.397 255.7 287.23 248.833 288.897 245.5Z" fill="#030000" fill-opacity="0.55"/>
<path d="M279.397 254C287.397 247 288.397 228.167 286.897 217.5L282.397 227.5C284.897 235 277.397 247.5 271.397 252.5C273.397 251.7 277.563 253.167 279.397 254Z" fill="#030000" fill-opacity="0.55"/>
<path d="M207.897 223.5L211.897 231C203.097 231.4 190.897 244.833 187.397 250.5C189.397 233.7 202.23 224.667 207.897 223.5Z" fill="#030000" fill-opacity="0.55"/>
<path d="M176.397 216.5C187.197 217.3 191.564 221.5 192.397 223.5C188.397 227.1 186.897 238 186.397 243L184.897 239.5C184.097 237.9 184.563 233.833 184.897 232L183.397 236L181.397 235V232L182.897 232.5V231.5L181.897 230.5L181.397 227L180.897 230.5L176.397 229V216.5Z" fill="#030000" fill-opacity="0.55"/>
<path d="M179.897 231H176.397V233.5H179.897V231Z" fill="#030000" fill-opacity="0.55"/>
<path d="M209.897 234H212.397L215.397 237.5C215.397 238.7 212.23 241.167 210.897 242C202.897 242.4 196.73 252.333 194.897 257.5L192.897 257C192.497 251 201.73 242.5 206.397 239C202.797 239.4 197.23 245.167 194.897 248C197.297 240.8 205.897 235.667 209.897 234Z" fill="#030000" fill-opacity="0.55"/>
<path d="M215.897 267.5L213.397 261.5C225.397 258.5 230.063 266.667 229.897 270.5C225.897 269 219.397 268 215.897 267.5Z" fill="#030000" fill-opacity="0.55"/>
<path d="M232.397 269.5L227.397 263C228.597 263.8 237.563 264.333 241.897 264.5L240.897 267.5L243.897 264.5H247.397L246.397 268L249.897 263.5L254.397 260.5C255.897 261 251.897 266.5 249.397 269C244.597 270.2 235.73 270.167 232.397 269.5Z" fill="#030000" fill-opacity="0.55"/>
<path d="M197.897 269.5C203.097 267.1 208.063 268.5 209.897 269.5C210.697 271.9 209.563 272.833 208.897 273C204.497 271.4 198.397 273.667 195.897 275L197.897 269.5Z" fill="#030000" fill-opacity="0.55"/>
<path d="M189.897 278.5C190.697 278.1 192.23 273.667 192.897 271.5C191.297 272.3 181.23 279 176.397 282.5V288C178.797 288 181.063 286 181.897 285C183.497 281.8 187.897 279.333 189.897 278.5Z" fill="#030000" fill-opacity="0.55"/>
<path d="M246.397 276.5L245.397 278.5L243.397 276.5H246.397Z" fill="#030000" fill-opacity="0.55"/>
<path d="M236.397 281L241.397 284.5L238.397 289.5V288L239.397 286.5L236.397 281Z" fill="#030000" fill-opacity="0.55"/>
<path d="M220.897 278C221.297 278.4 221.73 282.5 221.897 284.5C221.897 285.5 219.397 286 218.897 286C218.497 286 212.063 287 209.397 288L211.397 285C209.797 286.6 197.397 294.5 184.397 297C185.397 294.5 188.563 291 189.897 290V292.5C191.097 289.3 194.063 288 194.897 287.5L193.897 290C205.397 284.5 206.897 282 205.397 279.5C211.797 279.1 210.897 282 207.897 285.5C209.397 284 212.897 280.833 214.397 279C214.797 277 219.063 277.667 220.897 278Z" fill="#030000" fill-opacity="0.55"/>
<path d="M269.897 303C273.897 305 285.563 303.833 290.897 303L286.897 307C278.097 308.2 270.897 306.833 268.397 306C268.397 304.4 269.397 303.333 269.897 303Z" fill="#030000" fill-opacity="0.55"/>
<path d="M257.897 303.5L265.897 305.5V302C264.397 302.5 252.897 295.5 252.397 295.5C251.997 295.5 248.897 301.5 247.397 304.5C247.797 305.7 253.563 308 256.397 309C254.797 309.4 249.063 307.167 246.397 306C250.397 314 261.397 314.667 266.397 314L265.897 307C263.897 307.4 259.73 304.833 257.897 303.5Z" fill="#030000" fill-opacity="0.55"/>
<path d="M281.397 310.5C279.397 310.5 271.563 308.833 267.897 308C267.097 308.4 267.563 312.5 267.897 314.5C275.497 313.7 280.063 311.5 281.397 310.5Z" fill="#030000" fill-opacity="0.55"/>
<path d="M259.897 330.5C261.497 330.1 263.563 322.333 264.397 318.5L261.397 318C261.397 320.4 261.063 323.167 260.397 324C259.397 320.5 251.563 317.567 247.897 316V322C249.897 321.2 256.73 327.333 259.897 330.5Z" fill="#030000" fill-opacity="0.55"/>
<path d="M177.897 314V308.5C185.497 307.3 189.897 306.5 190.397 307V315C189.997 316.2 188.563 316.5 187.897 316.5V313.5H186.897V316.5H182.897L182.397 311L181.897 310.5L180.897 316.5C180.097 317.3 178.563 315.167 177.897 314Z" fill="#030000" fill-opacity="0.55"/>
<path d="M190.397 328.5L190.897 325C190.897 323.4 185.73 323.333 183.397 323.5V325.5L182.397 326V323.5C179.397 323 178.397 325 177.897 325.5C177.497 325.9 177.73 327.667 177.897 328.5H190.397Z" fill="#030000" fill-opacity="0.55"/>
<path d="M191.397 306L192.397 314C197.597 318 202.73 315.333 204.397 313.5L200.897 303L191.397 306Z" fill="#030000" fill-opacity="0.55"/>
<path d="M192.397 329C192.797 328.6 200.397 330.5 203.897 331.5L205.397 325C198.197 322.2 193.563 324.167 192.397 325.5V329Z" fill="#030000" fill-opacity="0.55"/>
<path d="M205.897 298C207.897 305.833 211.497 322.9 209.897 328.5C211.063 326.167 213.197 320.7 212.397 317.5C213.02 319.214 213.876 323.142 212.678 325.934C212.583 326.131 212.49 326.32 212.397 326.5C212.501 326.318 212.594 326.129 212.678 325.934C215.458 320.139 218.634 307.511 210.897 299C211.397 301.667 212.197 307.2 211.397 308C210.73 304.833 208.697 298.4 205.897 298Z" fill="#030000" fill-opacity="0.55"/>
<path d="M225.397 282.5C227.063 295.5 227.897 324.6 217.897 337H220.397C223.088 332.963 228.113 324.42 228.83 319.528C228.53 325.087 227.445 334.452 224.897 337C226.897 335.167 231.097 329.9 231.897 323.5C232.049 325.792 232.258 330.437 231.984 332.119C231.954 332.25 231.925 332.377 231.897 332.5C231.93 332.4 231.959 332.272 231.984 332.119C233.008 327.601 234.897 317.942 234.897 312.5H230.397L234.397 311C234.397 304.5 232.897 289.5 226.897 281.5C228.563 285.667 231.497 294.9 229.897 298.5C229.063 294 226.997 284.5 225.397 282.5Z" fill="#030000" fill-opacity="0.55"/>
<path d="M207.897 344C215.497 347.6 229.063 346.833 234.897 346C235.297 348 232.73 350.167 231.397 351C221.797 353.8 209.73 349.833 204.897 347.5C206.897 346.7 207.73 344.833 207.897 344Z" fill="#030000" fill-opacity="0.55"/>
<path d="M213.897 352.5L204.897 350L207.897 353.5L212.897 355.5C207.897 356 205.293 360.333 203.897 364C204.697 366.4 203.063 375.833 201.897 379.5C201.897 380.3 204.897 380.167 206.397 380L212.397 375.5C211.997 377.1 210.397 379 209.397 380C222.197 373.6 222.063 364.167 220.397 360.5C220.397 362.5 218.73 364 217.897 364.5C218.297 364.1 218.73 359 218.897 356.5L213.897 352.5Z" fill="#030000" fill-opacity="0.55"/>
<path d="M189.897 361.5L191.397 362V365.5H189.897V361.5Z" fill="#030000" fill-opacity="0.55"/>
<path d="M189.897 367H191.397V370.5H189.397L189.897 367Z" fill="#030000" fill-opacity="0.55"/>
<path d="M186.897 372V374H185.897V373L186.897 372Z" fill="#030000" fill-opacity="0.55"/>
<path d="M176.397 388C208.897 387.5 205.563 362 200.397 349.5C200.397 347.9 187.397 345.5 180.897 344.5C182.497 344.1 192.23 344.667 196.897 345C200.497 346.2 202.23 345.333 202.397 344.5C203.197 341.3 185.23 340 176.397 340V351.5C183.197 351.5 186.23 356.833 186.897 359.5L187.397 353.5C188.197 353.5 189.063 358.167 189.397 360.5H191.397L191.897 357.5L196.397 362L193.397 362.5V366.5L196.897 368L193.397 367.5L192.897 371.5L194.897 372L192.397 372.5L191.397 373V372H188.897L188.397 375C189.597 374.6 191.563 375.5 192.397 376H189.897H187.897L186.897 377V375.5H184.397C184.397 379.1 179.063 380 176.397 380V388Z" fill="#030000" fill-opacity="0.55"/>
<path d="M231.397 79C237.797 70.2 234.397 51 231.397 47C232.997 61 224.397 72.5 219.397 76C218.597 74.8 204.73 73.1667 198.397 72.5C199.397 73 203.397 91 203.897 90C204.297 89.2 207.397 89.6667 208.897 90C210.097 89.2 205.73 82.3333 203.397 79L207.397 82.5L211.397 83.5V81.5L213.397 83.5H216.897L215.897 81C219.397 81.5 230.73 85 236.897 88C236.397 95.5 238.397 97 245.897 102C248.397 99.5 252.063 94.8333 253.397 92C254.197 90.8 238.897 82.8333 231.397 79Z" fill="#030000" fill-opacity="0.55"/>
<path d="M219.897 88.5L218.897 86L214.397 84.5L215.397 88L219.897 88.5Z" fill="#030000" fill-opacity="0.55"/>
<path d="M209.397 86.5L213.397 87L212.397 84.5L207.897 84L209.397 86.5Z" fill="#030000" fill-opacity="0.55"/>
<path d="M209.397 88C210.73 88.1667 213.597 88.5 214.397 88.5L215.397 92L210.397 90.5L209.397 88Z" fill="#030000" fill-opacity="0.55"/>
<path d="M221.397 90.5V93.5L217.397 92.5L215.897 89.5L221.397 90.5Z" fill="#030000" fill-opacity="0.55"/>
<defs>
<linearGradient id="paint0_linear_1204_2" x1="62.0567" y1="190.5" x2="62.0567" y2="300" gradientUnits="userSpaceOnUse">
<stop stop-color="#FFB6C1"/>
<stop offset="1" stop-color="#FF1493"/>
</linearGradient>
<linearGradient id="paint1_linear_1204_2" x1="63.3965" y1="283.936" x2="63.3965" y2="291.5" gradientUnits="userSpaceOnUse">
<stop stop-color="#FFB6C1"/>
<stop offset="1" stop-color="#FF1493"/>
</linearGradient>
<linearGradient id="paint2_linear_1204_2" x1="67.1707" y1="296" x2="67.1707" y2="351.188" gradientUnits="userSpaceOnUse">
<stop stop-color="#FFB6C1"/>
<stop offset="1" stop-color="#FF1493"/>
</linearGradient>
<linearGradient id="paint3_linear_1204_2" x1="49.0633" y1="183.5" x2="49.0633" y2="270" gradientUnits="userSpaceOnUse">
<stop stop-color="#FFB6C1"/>
<stop offset="1" stop-color="#FF1493"/>
</linearGradient>
<linearGradient id="paint4_linear_1204_2" x1="23.2764" y1="162" x2="23.2764" y2="203" gradientUnits="userSpaceOnUse">
<stop stop-color="#FFB6C1"/>
<stop offset="1" stop-color="#FF1493"/>
</linearGradient>
<linearGradient id="paint5_linear_1204_2" x1="290.736" y1="190.5" x2="290.736" y2="300" gradientUnits="userSpaceOnUse">
<stop stop-color="#FFB6C1"/>
<stop offset="1" stop-color="#FF1493"/>
</linearGradient>
<linearGradient id="paint6_linear_1204_2" x1="289.396" y1="283.936" x2="289.396" y2="291.5" gradientUnits="userSpaceOnUse">
<stop stop-color="#FFB6C1"/>
<stop offset="1" stop-color="#FF1493"/>
</linearGradient>
<linearGradient id="paint7_linear_1204_2" x1="285.622" y1="296" x2="285.622" y2="351.188" gradientUnits="userSpaceOnUse">
<stop stop-color="#FFB6C1"/>
<stop offset="1" stop-color="#FF1493"/>
</linearGradient>
<linearGradient id="paint8_linear_1204_2" x1="303.73" y1="183.5" x2="303.73" y2="270" gradientUnits="userSpaceOnUse">
<stop stop-color="#FFB6C1"/>
<stop offset="1" stop-color="#FF1493"/>
</linearGradient>
<linearGradient id="paint9_linear_1204_2" x1="329.517" y1="162" x2="329.517" y2="203" gradientUnits="userSpaceOnUse">
<stop stop-color="#FFB6C1"/>
<stop offset="1" stop-color="#FF1493"/>
</linearGradient>
</defs>
</svg>
