<svg width="229" height="296" viewBox="0 0 229 296" fill="none" xmlns="http://www.w3.org/2000/svg">
<path d="M39.9126 230.115C37.5126 247.315 17.5792 277.281 7.91257 290.115C21.9129 300.115 51.7458 285.948 64.9121 277.615L79.9121 292.615L87.9121 286.115L95.9121 295.615C97.1121 292.015 121.912 290.115 134.412 295.615L142.912 286.115L152.912 292.615L167.912 277.615C181.912 295.215 210.079 293.281 222.412 290.115C198.412 264.115 191.579 237.948 191.412 228.115L183.412 223.615L200.912 209.615L207.912 216.115C224.912 201.115 229.079 165.615 228.912 153.115C204.912 145.915 216.245 129.115 224.912 121.615L200.912 93.6147C206.112 96.8148 209.745 76.9481 210.912 66.6147L200.912 73.6147L205.912 57.6147C193.512 51.2147 190.079 30.6147 189.912 21.1147L172.412 34.6147C157.212 27.4146 173.412 9.61462 183.412 1.61465C151.012 -6.38535 124.579 17.2813 115.412 30.1147C108.212 32.1147 106.745 18.6147 106.912 11.6147L99.9121 16.6147V4.61465C73.5121 12.2147 65.5788 27.7813 64.9121 34.6147C62.9121 30.6147 56.4121 28.2813 53.4121 27.6147C53.0121 51.6147 39.9121 68.2813 33.4121 73.6147V89.6147C11.0121 108.015 7.07908 118.615 7.91257 121.615C23.5129 142.415 9.41272 151.281 0.412568 153.115C-2.78743 178.315 13.4126 205.615 21.9126 216.115C23.5792 212.615 27.3126 206.415 28.9126 209.615C30.5126 212.815 40.9126 220.281 45.9126 223.615L39.9126 230.115Z" fill="black"/>
<path d="M56 214.5L57.25 220.5C58.6799 219.384 60.1052 218.931 61.5 218.988C68.1039 219.261 74.0231 230.982 76.5 238C77.5689 234.526 76.9121 228.776 75.9608 224C75.488 221.627 74.9426 219.494 74.5 218L63 208L56 214.5Z" fill="#FFB6C1" stroke="black"/>
<path d="M173.5 214.5L172.25 220.5C170.82 219.384 169.395 218.931 168 218.988C164.926 219.115 161.999 221.724 159.5 225.183C156.631 229.155 154.324 234.249 153 238C151.931 234.526 152.588 228.776 153.539 224C154.012 221.627 154.557 219.494 155 218L166.5 208L173.5 214.5Z" fill="#FFB6C1" stroke="black"/>
<path d="M89.5 270.5C79.5 276.5 77 274 77 272C85.5 270.5 89.5 261 93.5 261H133C139.5 260.5 147 270.5 153.5 273C148.3 275 142.667 272.167 140.5 270.5C136.5 270.5 133.833 275.5 133 278H112.5H97.5C95.5 274.4 91.3333 271.5 89.5 270.5Z" fill="#FFB6C1" stroke="black"/>
<path d="M90.5 226L115 236.5L136.5 226.99L139 226L155.5 204.5L139 207C138.2 202.2 142.333 199 144.5 198C130.9 192.8 123.833 185.833 122 183L115 185.5L108 183C102.4 189.8 91 195.833 86 198C88.8 197.6 90.1667 203.833 90.5 207C88.5 205 77.6667 204.5 73.5 204.5L90.5 226Z" fill="#FFB6C1" stroke="black"/>
<path d="M54 234.5C50.8 256.1 38 273.5 33 281C39.4447 283.578 54.8193 269.542 64 259.236C69.0647 253.55 71.375 250 71.5 249C72.1275 243.98 70.9938 239.821 69.7804 236.5C69.2309 234.996 68.5625 233.663 67.8385 232.5C66.085 229.683 64.0057 227.86 62.5 227L58.25 230.75L54 234.5Z" fill="#FFB6C1"/>
<path d="M77.5 252C76.3 256.4 79.6667 260.833 81.5 262.5C81.2879 263.242 81.0665 263.907 80.8379 264.5C78.4802 270.621 75.3675 269.171 74 267.5C68.8 258.7 74.1667 253.5 77.5 252Z" fill="#FFB6C1"/>
<path d="M89 249C90.6 252.2 92.3333 254.667 93 255.5C93 257.1 88.6667 258.657 86.5 259.236C83.3 256.625 86.8333 251.324 89 249Z" fill="#FFB6C1"/>
<path d="M93 234.5V244.5C88.2 243.3 86.6667 234.833 86.5 230.75C89.3 230.75 92 233.25 93 234.5Z" fill="#FFB6C1"/>
<path d="M104 238.5L98.5 236.5V244.5C99.7 248.1 102.333 246.667 103.5 245.5L104 238.5Z" fill="#FFB6C1"/>
<path d="M97.5 255.5H104L103 250.5C101.4 249.3 98.3333 250 97 250.5L97.5 255.5Z" fill="#FFB6C1"/>
<path d="M113.5 242L107.5 240V245.5C107.5 247.5 111.5 247.333 113.5 247V242Z" fill="#FFB6C1"/>
<path d="M113.5 251H107.5V255.5H113.5V251Z" fill="#FFB6C1"/>
<path d="M54 234.5C50.8 256.1 38 273.5 33 281C39.4447 283.578 54.8193 269.542 64 259.236C69.0647 253.55 71.375 250 71.5 249C72.1275 243.98 70.9938 239.821 69.7804 236.5C69.2309 234.996 68.5625 233.663 67.8385 232.5C66.085 229.683 64.0057 227.86 62.5 227L58.25 230.75L54 234.5Z" stroke="black"/>
<path d="M77.5 252C76.3 256.4 79.6667 260.833 81.5 262.5C81.2879 263.242 81.0665 263.907 80.8379 264.5C78.4802 270.621 75.3675 269.171 74 267.5C68.8 258.7 74.1667 253.5 77.5 252Z" stroke="black"/>
<path d="M89 249C90.6 252.2 92.3333 254.667 93 255.5C93 257.1 88.6667 258.657 86.5 259.236C83.3 256.625 86.8333 251.324 89 249Z" stroke="black"/>
<path d="M93 234.5V244.5C88.2 243.3 86.6667 234.833 86.5 230.75C89.3 230.75 92 233.25 93 234.5Z" stroke="black"/>
<path d="M104 238.5L98.5 236.5V244.5C99.7 248.1 102.333 246.667 103.5 245.5L104 238.5Z" stroke="black"/>
<path d="M97.5 255.5H104L103 250.5C101.4 249.3 98.3333 250 97 250.5L97.5 255.5Z" stroke="black"/>
<path d="M113.5 242L107.5 240V245.5C107.5 247.5 111.5 247.333 113.5 247V242Z" stroke="black"/>
<path d="M113.5 251H107.5V255.5H113.5V251Z" stroke="black"/>
<path d="M177.5 234.5C180.7 256.1 193.5 273.5 198.5 281C192.055 283.578 176.681 269.542 167.5 259.236C162.435 253.55 160.5 251 160.5 249C159.873 243.98 160.506 239.821 161.72 236.5C162.269 234.996 162.938 233.663 163.662 232.5C165.415 229.683 167.494 227.86 169 227L173.25 230.75L177.5 234.5Z" fill="#FFB6C1"/>
<path d="M154 252C155.2 256.4 151.833 260.833 150 262.5C150.274 263.458 151.2 264.287 151.5 265C153.831 270.539 156.171 269.124 157.5 267.5C162.7 258.7 157.333 253.5 154 252Z" fill="#FFB6C1"/>
<path d="M142.5 249C140.9 252.2 139.167 254.667 138.5 255.5C138.5 257.1 142.833 258.657 145 259.236C148.2 256.625 144.667 251.324 142.5 249Z" fill="#FFB6C1"/>
<path d="M138.5 234.5V244.5C143.3 243.3 144.833 234.833 145 230.75C142.2 230.75 139.5 233.25 138.5 234.5Z" fill="#FFB6C1"/>
<path d="M127.5 238.5L133 236.5V244.5C131.8 248.1 129.167 246.667 128 245.5L127.5 238.5Z" fill="#FFB6C1"/>
<path d="M134 255.5H127.5L128.5 250.5C130.1 249.3 133.167 250 134.5 250.5L134 255.5Z" fill="#FFB6C1"/>
<path d="M118 242L124 240V245.5C124 247.5 120 247.333 118 247V242Z" fill="#FFB6C1"/>
<path d="M118 251H124V255.5H118V251Z" fill="#FFB6C1"/>
<path d="M177.5 234.5C180.7 256.1 193.5 273.5 198.5 281C192.055 283.578 176.681 269.542 167.5 259.236C162.435 253.55 160.5 251 160.5 249C159.873 243.98 160.506 239.821 161.72 236.5C162.269 234.996 162.938 233.663 163.662 232.5C165.415 229.683 167.494 227.86 169 227L173.25 230.75L177.5 234.5Z" stroke="black"/>
<path d="M154 252C155.2 256.4 151.833 260.833 150 262.5C150.274 263.458 151.2 264.287 151.5 265C153.831 270.539 156.171 269.124 157.5 267.5C162.7 258.7 157.333 253.5 154 252Z" stroke="black"/>
<path d="M142.5 249C140.9 252.2 139.167 254.667 138.5 255.5C138.5 257.1 142.833 258.657 145 259.236C148.2 256.625 144.667 251.324 142.5 249Z" stroke="black"/>
<path d="M138.5 234.5V244.5C143.3 243.3 144.833 234.833 145 230.75C142.2 230.75 139.5 233.25 138.5 234.5Z" stroke="black"/>
<path d="M127.5 238.5L133 236.5V244.5C131.8 248.1 129.167 246.667 128 245.5L127.5 238.5Z" stroke="black"/>
<path d="M134 255.5H127.5L128.5 250.5C130.1 249.3 133.167 250 134.5 250.5L134 255.5Z" stroke="black"/>
<path d="M118 242L124 240V245.5C124 247.5 120 247.333 118 247V242Z" stroke="black"/>
<path d="M118 251H124V255.5H118V251Z" stroke="black"/>
<path d="M88.5002 36L77.5002 48.5C70.7002 36.1 82.0002 26 88.5002 22.5V36Z" fill="#FFB6C1"/>
<path d="M181.5 61.5L186 64.5V70V75.5C189.6 74.7 192.5 64.8333 193.5 60C188.7 56.4 185.5 47.5 184.5 43.5C180.5 47.1 180.833 57 181.5 61.5Z" fill="#FFB6C1"/>
<path d="M169.5 48.5C146.3 40.5 152.5 23.5 158.5 16C153.3 16 147.667 19.3333 145.5 21C134.5 22.5 126.5 43.5 118.5 53C114.667 54.1667 105.3 53.9 98.4999 43.5C95.4998 49.6667 89.7998 65 90.9998 77C90.4998 81 88.5998 90.3 84.9998 95.5C88.8332 96 93.5 93.5 96.4998 92C84.9998 117.5 45.9998 100.5 72.9998 75.5C72.1665 68.6667 68.6998 54.6 61.4998 53C59.4998 61.1667 54.0998 77.8 48.4998 79C46.9998 91.6955 49.7998 119.178 72.9998 127.543C70.4998 124.227 66.0998 116.934 68.4998 114.297L84.9998 130.233L102 157.5L80.9998 144C74.2147 141.947 63.5369 137.301 54.5303 130.233C48.4041 125.425 43.0512 119.496 40.2223 112.5C39.446 110.58 38.8598 108.58 38.4999 106.5C33.6665 110.819 24.1998 120.265 24.9998 123.5C25.8523 124.652 26.7176 126.017 27.5177 127.543C30.6072 133.437 32.7245 141.74 29.3811 149.5C27.3275 154.266 23.2138 158.827 16 162.5C17.5 171.632 21.3 190.418 24.5 192.5L28.5 183C31.9999 189.667 40.0997 203 44.4998 203C49.9999 199.333 62.3 193.2 67.5 198C70.8334 196.333 77.5002 192.7 77.5002 191.5C77.5002 190 66.9996 183 58.4998 183L44.4998 162.5L41.4999 171C33.4999 162.2 36.1665 149.333 38.4999 144C66.4999 149.2 90.1665 170.167 98.4999 180L107.5 172.5L113.5 175.5H121L129 182L131 178L134.5 180C140.5 163.6 176.333 149.167 193.5 144V151.5C194.167 150 196.6 147 201 147C198.558 140.589 201.202 132.799 204 127.543C204.868 125.913 205.75 124.526 206.5 123.5C206.9 117.9 196 109.833 190.5 106.5C190.5 109.21 189.962 111.813 189 114.297C186.647 120.371 181.759 125.737 176 130.233C167.43 136.923 156.934 141.689 150 144L129 157.5L143.5 133.5C164.7 129.1 174 115.667 176 109.5C170.237 113.342 165.773 114.428 162.5 113.861C150.437 111.773 154.555 87.241 169.5 95.5C176.3 85.5 174 69.6667 172 63C170.8 72.2 153.833 81.5 145.5 85C144.7 92.6 136.5 99.5 132.5 102C131.689 94.9745 132.418 88.6454 134.193 83C140.299 63.5744 158.781 52.245 169.5 48.5Z" fill="#FFB6C1"/>
<path d="M215 162.5C206.2 160.1 203 154.167 202.5 151.5C200.9 148.122 195.833 154.093 193.5 157.5C194.7 161.1 191.5 168.5 189 172.5C189 167.3 187.5 165 186 162.5C184.8 168.1 176.167 179.5 172 184.5C163.2 182.9 155.667 188.5 153 191.5L162.5 198H177.5L186 203C188.468 202.383 191.835 199.007 195 195.103C197.99 191.414 200.8 187.253 202.5 184.5L206.5 191.5C207.472 190.65 208.499 188.426 209.5 185.502C211.796 178.799 213.955 168.419 215 162.5Z" fill="#FFB6C1"/>
<path d="M88.5002 36L77.5002 48.5C70.7002 36.1 82.0002 26 88.5002 22.5V36Z" stroke="black"/>
<path d="M181.5 61.5L186 64.5V70V75.5C189.6 74.7 192.5 64.8333 193.5 60C188.7 56.4 185.5 47.5 184.5 43.5C180.5 47.1 180.833 57 181.5 61.5Z" stroke="black"/>
<path d="M169.5 48.5C146.3 40.5 152.5 23.5 158.5 16C153.3 16 147.667 19.3333 145.5 21C134.5 22.5 126.5 43.5 118.5 53C114.667 54.1667 105.3 53.9 98.4999 43.5C95.4998 49.6667 89.7998 65 90.9998 77C90.4998 81 88.5998 90.3 84.9998 95.5C88.8332 96 93.5 93.5 96.4998 92C84.9998 117.5 45.9998 100.5 72.9998 75.5C72.1665 68.6667 68.6998 54.6 61.4998 53C59.4998 61.1667 54.0998 77.8 48.4998 79C46.9998 91.6955 49.7998 119.178 72.9998 127.543C70.4998 124.227 66.0998 116.934 68.4998 114.297L84.9998 130.233L102 157.5L80.9998 144C74.2147 141.947 63.5369 137.301 54.5303 130.233C48.4041 125.425 43.0512 119.496 40.2223 112.5C39.446 110.58 38.8598 108.58 38.4999 106.5C33.6665 110.819 24.1998 120.265 24.9998 123.5C25.8523 124.652 26.7176 126.017 27.5177 127.543C30.6072 133.437 32.7245 141.74 29.3811 149.5C27.3275 154.266 23.2138 158.827 16 162.5C17.5 171.632 21.3 190.418 24.5 192.5L28.5 183C31.9999 189.667 40.0997 203 44.4998 203C49.9999 199.333 62.3 193.2 67.5 198C70.8334 196.333 77.5002 192.7 77.5002 191.5C77.5002 190 66.9996 183 58.4998 183L44.4998 162.5L41.4999 171C33.4999 162.2 36.1665 149.333 38.4999 144C66.4999 149.2 90.1665 170.167 98.4999 180L107.5 172.5L113.5 175.5H121L129 182L131 178L134.5 180C140.5 163.6 176.333 149.167 193.5 144V151.5C194.167 150 196.6 147 201 147C198.558 140.589 201.202 132.799 204 127.543C204.868 125.913 205.75 124.526 206.5 123.5C206.9 117.9 196 109.833 190.5 106.5C190.5 109.21 189.962 111.813 189 114.297C186.647 120.371 181.759 125.737 176 130.233C167.43 136.923 156.934 141.689 150 144L129 157.5L143.5 133.5C164.7 129.1 174 115.667 176 109.5C170.237 113.342 165.773 114.428 162.5 113.861C150.437 111.773 154.555 87.241 169.5 95.5C176.3 85.5 174 69.6667 172 63C170.8 72.2 153.833 81.5 145.5 85C144.7 92.6 136.5 99.5 132.5 102C131.689 94.9745 132.418 88.6454 134.193 83C140.299 63.5744 158.781 52.245 169.5 48.5Z" stroke="black"/>
<path d="M215 162.5C206.2 160.1 203 154.167 202.5 151.5C200.9 148.122 195.833 154.093 193.5 157.5C194.7 161.1 191.5 168.5 189 172.5C189 167.3 187.5 165 186 162.5C184.8 168.1 176.167 179.5 172 184.5C163.2 182.9 155.667 188.5 153 191.5L162.5 198H177.5L186 203C188.468 202.383 191.835 199.007 195 195.103C197.99 191.414 200.8 187.253 202.5 184.5L206.5 191.5C207.472 190.65 208.499 188.426 209.5 185.502C211.796 178.799 213.955 168.419 215 162.5Z" stroke="black"/>
<path d="M213.5 149.5C205.9 151.5 203 147.5 201.5 147C198.5 148 196.5 148.5 194 151C193.5 152 191.5 155.5 188 158C185.5 156.5 187.25 151.5 183.5 149.5C177.5 146.3 168.5 160.167 165 167.5L147 180C161.4 182.4 167 172.667 168 167.5C176.8 149.9 181.666 150.833 183 153.5C183.666 156.167 185.8 161.4 189 161L193.5 157C195.833 153.593 200.9 148.122 202.5 151.5C207.3 155.1 211.833 151.667 213.5 149.5Z" fill="#FFB6C1"/>
<path d="M68.5 167.5L85 179.5C68.2 181.1 63.3333 171.333 63 166L68.5 167.5Z" fill="#FFB6C1"/>
<path d="M213.5 149.5C205.9 151.5 203 147.5 201.5 147C198.5 148 196.5 148.5 194 151C193.5 152 191.5 155.5 188 158C185.5 156.5 187.25 151.5 183.5 149.5C177.5 146.3 168.5 160.167 165 167.5L147 180C161.4 182.4 167 172.667 168 167.5C176.8 149.9 181.666 150.833 183 153.5C183.666 156.167 185.8 161.4 189 161L193.5 157C195.833 153.593 200.9 148.122 202.5 151.5C207.3 155.1 211.833 151.667 213.5 149.5Z" stroke="black"/>
<path d="M68.5 167.5L85 179.5C68.2 181.1 63.3333 171.333 63 166L68.5 167.5Z" stroke="black"/>
<path d="M54.5 234.5C68.776 248.5 46.4483 271.333 33.5 281C40.5 282 54.8193 268.806 64 258.5V240L69.3564 236.591C68.8069 235.087 68.6436 234.909 68 233.5C61.8708 239.9 59.1423 234.25 58.5 231L54.5 234.5Z" fill="#F8F8FF"/>
<path d="M62.5 218.75C68.5 220 73.5 229.5 76.5 236.5C77.5689 233.026 76.4513 228.276 75.5 223.5L62.5 213V218.75Z" fill="#F8F8FF"/>
<path d="M77 253C76.5 256.5 79.1667 260.833 81 262.5C80.7879 263.242 79.7285 265.907 79.5 266.5C77 264.5 72.5 255 77 253Z" fill="#F8F8FF"/>
<path d="M177 234.5C162.724 248.5 185.052 271.333 198 281C191.555 283.578 176.681 268.806 167.5 258.5V240L162 236.5C162.55 234.996 163.276 233.663 164 232.5C170.129 238.9 172.358 234.25 173 231L177 234.5Z" fill="#F8F8FF"/>
<path d="M173 214.5L172 220C170.5 219 169.395 218.442 168 218.5C164.926 218.627 161.499 221.54 159 225C159 221.439 161.9 215 167.5 215L166.5 208.5L173 214.5Z" fill="#F8F8FF"/>
<path d="M154 252C155.2 256.4 152.333 260.833 150.5 262.5C150.774 263.458 151.5 264 152 265C155.5 262.5 159 256.5 154 252Z" fill="#F8F8FF"/>
<path d="M140.5 270C137 271 134 274.5 133 277.5L114.5 277.5C115.333 273.667 114.9 267 110.5 267C115.333 265.333 127.3 262.8 140.5 270Z" fill="#F8F8FF"/>
<path d="M101.5 266.5C101.5 268 103 271.5 103 273.5C103.833 272.833 106.2 271.9 109 273.5C109 268.3 104 266.5 101.5 266.5Z" fill="#F8F8FF"/>
<path d="M101.5 224.5L115 236L138 226L144.5 211L134.5 213.5L137.5 200L124.884 191V195.5C126.493 197.62 127.754 200.373 128.494 201.987L128.5 202C122 205 123.265 208.942 126 213.5C127.5 216 124.884 219.5 121.5 222C118.5 220 120.5 213.75 116 213C111.5 212.25 110 219.5 110.5 222.5L116 217.5V228L101.5 224.5Z" fill="#F8F8FF"/>
<path d="M94.5 219.5H101.5C97.1 212.01 91.6667 212.379 89.5 213.5C91.5 213.5 93.6667 217.5 94.5 219.5Z" fill="#F8F8FF"/>
<path d="M88 36L77.5 48L77.5256 47.8881C78.8649 42.0276 81.3383 31.2051 82.9281 32C84.5281 32.8 86.9999 35 88 36Z" fill="#F8F8FF"/>
<path d="M185.428 55L193 60L192.968 60.1568C191.965 65.0059 190.082 74.107 186.559 74.9861L186.928 68V63C186.559 60 185.261 57.1667 185.428 55Z" fill="#F8F8FF"/>
<path d="M168.5 48.5C146.5 40.5 153 23 157.928 16C152.728 16 147.095 19.3333 144.928 21C142.5 21.5 134.761 43.1667 131.928 55C115.528 61.8 107.428 74.8333 105.428 80.5C111.428 72.5 123.261 71.8333 128.428 72.5C126.828 74.5 126.095 84.3333 125.928 89L133.5 84C139.606 64.5744 157.782 52.245 168.5 48.5Z" fill="#F8F8FF"/>
<path d="M168.928 95.5C175.728 85.5 174 71.1667 172 64.5C171.833 70.3333 167.228 82.8 152.428 92C146.761 99.1417 141.8 114.151 163 114.5C150.937 112.412 153.983 87.241 168.928 95.5Z" fill="#F8F8FF"/>
<path d="M129 157.5L142.928 133.5C145.828 128.7 141.137 122.167 138.428 119.5C116.428 157.528 87.9285 127.543 105.428 106.5C95.428 102.9 88.3333 120.822 85.5 130.233L101.428 157.5V161H87.9285C83.9287 159.8 78.9285 152.833 76.9285 149.5C61.7288 145.929 55.282 135.167 53.9585 130.233C47.8323 125.425 42.4794 119.496 39.6505 112.5C38.6285 110.283 30.8089 120.062 26.9999 126C30.0894 131.894 32.3433 143.74 28.9999 151.5C28.9999 152.5 24.5705 166.29 24.0002 168C23.4999 169.5 26.6664 176.833 28.4998 182C28.4998 177.6 29.4282 173.5 33.9282 172.5C35.4282 178 44.0949 184.167 51.9282 190C47.1284 190 45.1665 198.167 44.4997 202.5C49.9998 198.833 60.428 193.5 67.4997 197.5L60.928 190C65.7616 189.299 75.7287 188.618 76.9285 191.5C76.9285 190 66.9996 183.5 58.4997 183.5C51.8331 180.667 43.4997 174 41.9997 171.5C33.9997 162.7 35.5947 149.333 37.9281 144C65.9281 149.2 90.1666 169.667 98.4999 179.5L95.928 171L101.428 167.5L106.928 172.5L113.5 175L128.428 167.5L133.621 171L134.5 179C140.5 164 186.5 144.5 192.928 144L192.5 154.5C195.5 149 201.5 147.5 201.5 147.5C200.5 146 200.631 132.799 203.428 127.543C198.428 121.893 190.5 113 189 114.5C186.647 120.575 181.259 126.504 175.5 131C175.028 136.089 169.695 146.3 152.428 149.5C148.095 155.667 137.8 165.9 129 157.5Z" fill="#F8F8FF"/>
<path d="M202.5 150.5C203 153.167 205.744 160.441 214.544 162.841C213.502 168.75 211.802 177.765 209.512 184.465C209.508 184.477 209.504 184.489 209.5 184.5C209.504 184.488 209.508 184.477 209.512 184.465C210.045 182.791 207.164 175.138 205.928 171C204.328 169.8 203.167 178.5 202.5 183.5C200.8 186.253 197.418 191.414 194.428 195.103V183L182.428 195.5L186 202.5L177.5 197.5H162.5L161.928 191.5L175.428 190C180.261 185.833 189.628 176.5 188.428 172.5C190.928 168.5 194.2 160.6 193 157C195 153.5 200.9 147.122 202.5 150.5Z" fill="#F8F8FF"/>
<path d="M62 53.5C69.2 55.1 71.6667 68.6667 72.5 75.5C66.1 72.7 59.0948 84.3333 56.4282 90.5C52.8284 81.3 59.9283 71.6667 63.9282 68L62 53.5Z" fill="#F8F8FF"/>
<path d="M83.4997 179L67.9997 167.5L62.9997 166.5L64.4997 170.5L83.4997 179Z" fill="#F8F8FF"/>
<path d="M164.5 168.5L147.5 180H153L161.928 172.5L164.5 168.5Z" fill="#F8F8FF"/>
<path d="M148.006 36.0002C148.007 33.1717 144.84 47.1668 145.006 52.5002C146.673 51.5002 150.207 49.2002 151.007 48.0002C152.007 46.5002 148.005 38.5 148.006 36.0002Z" fill="#FFB6C1"/>
<path d="M126.5 213.551C127.7 216.751 123.888 220.551 121.055 222.051C119.098 214.051 118.188 212.551 115.5 212.551C112.5 212 110 218.551 110 222.051C106 221.651 102.667 216.218 102 213.551C106 209.151 103.667 203.718 102 201.551C106 191.551 112.667 189.051 115.5 189.051C119.1 188.251 126.5 197 128.055 201.551C124 204.5 124 210.5 126.5 213.551Z" fill="black" stroke="black"/>
<path d="M130.797 177.5L134.5 179.5L133.99 170.5L128.797 167L113.297 175H120.797L128.797 181.5L130.797 177.5Z" fill="#FF69B4"/>
<path d="M98.2971 179.5L107.297 172L101.797 167L95.5001 171L98.2971 179.5Z" fill="#FF69B4"/>
<path d="M44.297 162L41.4998 171C41 171 49 180 58.5002 183.5L44.297 162Z" fill="#FF69B4"/>
<path d="M182.5 195.5L185.797 202.5C188.265 201.883 191.632 198.507 194.797 194.603V182.5L182.5 195.5Z" fill="#FF69B4"/>
<path d="M77.0001 191.5C77.0001 192.7 70.8334 195.833 67.5 197.5L60.5 190C65.3336 189.299 75.8003 188.618 77.0001 191.5Z" fill="#FF69B4"/>
</svg>
