<svg width="327" height="324" viewBox="0 0 327 324" fill="none" xmlns="http://www.w3.org/2000/svg">
<path d="M84.1141 108.49C76.2177 79.9942 24.7192 32.6157 0 27.1225C3.84522 9.81903 19.455 1.83106 26.7792 0C42.16 43.9453 88.5773 74.1577 109.863 83.7708L150.375 42.9154L160.675 52.5284L53.9017 159.645L43.602 149.689L84.1141 108.49Z" fill="#F8F8FF"/>
<path d="M267.792 323.41L87.8906 142.822L108.833 122.566L115.013 154.495L150.719 161.018L157.585 197.067L193.634 203.59L200.157 239.296L236.206 246.506L242.386 281.868L278.435 288.391L284.615 323.41H267.792Z" fill="#F8F8FF"/>
<path d="M144.882 86.5173L120.85 111.237L326.5 316.887V267.792L144.882 86.5173Z" fill="#FFC0CB"/>
</svg>
